<?xml version="1.0" standalone="no"?>
<!DOCTYPE svg PUBLIC "-//W3C//DTD SVG 20010904//EN"
 "http://www.w3.org/TR/2001/REC-SVG-20010904/DTD/svg10.dtd">
<svg version="1.0" xmlns="http://www.w3.org/2000/svg"
 width="1200.000000pt" height="1200.000000pt" viewBox="0 0 1200.000000 1200.000000"
 preserveAspectRatio="xMidYMid meet">

<g transform="translate(0.000000,1200.000000) scale(0.100000,-0.100000)"
fill="#000000" stroke="none">
<path d="M6233 10407 l-53 -10 0 -78 c0 -57 4 -79 13 -78 6 0 44 6 82 12 l70
12 3 78 3 77 -33 -1 c-18 -1 -57 -6 -85 -12z"/>
<path d="M6430 10342 c0 -77 0 -78 30 -89 l30 -11 0 79 c0 67 -3 80 -19 89
-37 19 -41 12 -41 -68z"/>
<path d="M6520 10306 c0 -71 3 -84 18 -89 9 -2 25 -8 35 -12 15 -6 17 1 17 72
l0 79 -35 17 -35 17 0 -84z"/>
<path d="M6035 10375 c-5 -2 -27 -6 -47 -10 l-38 -6 0 -79 c0 -58 3 -80 13
-79 6 0 41 6 77 13 l65 12 3 77 3 77 -33 -1 c-18 0 -37 -2 -43 -4z"/>
<path d="M5815 10339 c-101 -17 -95 -10 -95 -94 0 -85 -5 -82 97 -64 l63 11 0
79 c0 43 -3 78 -7 78 -5 -1 -30 -5 -58 -10z"/>
<path d="M6610 10271 c0 -74 1 -78 25 -89 14 -7 28 -12 30 -12 3 0 5 35 5 78
0 77 0 78 -30 89 l-30 11 0 -77z"/>
<path d="M5575 10305 c-5 -2 -27 -6 -47 -10 l-38 -6 0 -79 c0 -50 4 -80 11
-80 5 0 41 5 80 11 l69 12 0 78 0 79 -32 -1 c-18 0 -37 -2 -43 -4z"/>
<path d="M5340 10266 l-65 -11 -3 -84 c-3 -83 -3 -83 20 -78 13 3 47 9 76 13
l52 7 0 83 c0 46 -3 83 -7 83 -5 -1 -37 -7 -73 -13z"/>
<path d="M6238 10168 l-58 -10 0 -80 0 -81 43 7 c23 4 61 10 85 13 l42 6 0 78
0 79 -27 -1 c-16 -1 -54 -6 -85 -11z"/>
<path d="M6430 10101 c0 -79 0 -79 30 -90 l30 -10 0 80 c0 76 -1 80 -26 89
-14 6 -27 10 -30 10 -2 0 -4 -36 -4 -79z"/>
<path d="M6003 10128 l-53 -10 0 -79 c0 -45 4 -79 10 -79 5 0 41 5 80 12 l70
12 0 78 0 78 -27 -1 c-16 -1 -52 -6 -80 -11z"/>
<path d="M6520 10061 l0 -79 31 -11 c18 -6 34 -11 35 -11 2 0 4 35 4 78 0 75
-1 79 -25 90 -14 7 -30 12 -35 12 -6 0 -10 -36 -10 -79z"/>
<path d="M5820 10098 c-107 -15 -100 -8 -100 -96 l0 -78 77 13 c42 7 78 15 80
17 2 2 3 37 1 77 l-3 74 -55 -7z"/>
<path d="M6610 10025 c0 -72 1 -76 26 -85 14 -6 27 -10 30 -10 2 0 4 34 4 75
0 63 -3 76 -19 85 -37 19 -41 12 -41 -65z"/>
<path d="M5543 10058 l-53 -10 0 -79 c0 -90 -6 -86 97 -68 l63 11 0 79 0 79
-27 -1 c-16 -1 -52 -6 -80 -11z"/>
<path d="M5365 10029 c-104 -19 -95 -10 -95 -100 l0 -81 33 6 c17 3 51 8 75
12 l42 7 0 83 c0 46 -1 83 -2 83 -2 -1 -25 -5 -53 -10z"/>
<path d="M6243 9927 l-63 -10 0 -78 c0 -90 -7 -85 100 -67 l70 12 0 78 c0 89
9 84 -107 65z"/>
<path d="M6430 9862 c0 -75 1 -79 25 -90 14 -7 28 -12 30 -12 3 0 5 35 5 78 0
75 -1 79 -25 90 -14 7 -28 12 -30 12 -3 0 -5 -35 -5 -78z"/>
<path d="M6008 9888 l-58 -10 0 -79 c0 -49 4 -79 11 -79 5 0 41 5 80 11 l69
12 0 78 c0 90 7 85 -102 67z"/>
<path d="M6520 9822 c0 -75 1 -79 25 -90 14 -7 30 -12 35 -12 6 0 10 36 10 79
l0 79 -31 11 c-18 6 -34 11 -35 11 -2 0 -4 -35 -4 -78z"/>
<path d="M5805 9855 c-5 -2 -27 -6 -47 -10 l-38 -6 0 -80 c0 -72 2 -80 18 -75
15 4 130 26 139 26 2 0 3 34 3 75 l0 75 -32 -1 c-18 0 -37 -2 -43 -4z"/>
<path d="M6610 9785 c0 -63 3 -76 19 -85 37 -19 41 -12 41 65 0 63 -3 76 -19
85 -37 19 -41 12 -41 -65z"/>
<path d="M5548 9818 l-58 -10 0 -81 0 -80 57 7 c108 13 103 8 103 97 0 90 7
85 -102 67z"/>
<path d="M6700 9754 c0 -61 4 -79 18 -90 36 -27 42 -18 42 64 0 75 -1 79 -25
90 -14 7 -28 12 -30 12 -3 0 -5 -34 -5 -76z"/>
<path d="M5355 9785 c-5 -2 -27 -6 -47 -10 l-38 -6 0 -79 c0 -54 4 -80 12 -80
6 0 40 5 75 11 l63 11 0 79 0 79 -27 -1 c-16 0 -32 -2 -38 -4z"/>
<path d="M5110 9746 l-65 -12 -3 -80 -3 -81 53 9 c107 18 98 9 98 98 0 44 -3
79 -7 79 -5 -1 -37 -7 -73 -13z"/>
<path d="M6245 9696 l-60 -11 -3 -77 c-2 -59 0 -78 10 -77 7 0 45 6 83 12 l70
12 3 78 c3 88 9 85 -103 63z"/>
<path d="M6430 9632 c0 -77 0 -78 30 -89 l30 -11 0 77 c0 74 -1 78 -25 89 -14
7 -28 12 -30 12 -3 0 -5 -35 -5 -78z"/>
<path d="M6013 9657 l-63 -10 0 -79 0 -79 43 6 c23 4 58 10 77 14 l35 7 3 77
c3 87 12 81 -95 64z"/>
<path d="M6520 9591 c0 -66 3 -79 18 -84 9 -2 25 -8 35 -12 15 -6 17 0 17 69
0 74 -1 76 -30 91 -16 8 -31 15 -35 15 -3 0 -5 -35 -5 -79z"/>
<path d="M5783 9617 l-63 -10 0 -73 c0 -84 -5 -81 97 -63 l63 11 0 74 c0 84 9
78 -97 61z"/>
<path d="M6610 9557 c0 -69 2 -74 25 -85 14 -7 28 -12 30 -12 3 0 5 33 5 73 0
69 -2 74 -25 85 -14 7 -28 12 -30 12 -3 0 -5 -33 -5 -73z"/>
<path d="M5615 9593 c-11 -2 -44 -9 -72 -14 l-53 -10 0 -75 c0 -45 4 -74 11
-74 5 0 41 5 80 11 l69 12 0 78 c0 44 -3 78 -7 78 -5 -1 -17 -3 -28 -6z"/>
<path d="M6700 9522 c0 -75 1 -79 25 -90 14 -7 28 -12 30 -12 3 0 5 34 5 75 0
73 -1 75 -30 90 l-30 16 0 -79z"/>
<path d="M5340 9546 l-65 -11 -3 -79 c-3 -77 -3 -78 20 -73 13 3 47 9 76 13
l52 7 0 78 c0 44 -3 78 -7 78 -5 -1 -37 -7 -73 -13z"/>
<path d="M5105 9506 l-60 -12 -3 -73 -3 -74 47 7 c26 3 60 6 75 6 l29 0 0 80
c0 58 -3 80 -12 79 -7 -1 -40 -7 -73 -13z"/>
<path d="M6238 9468 l-58 -10 0 -80 0 -80 28 6 c15 3 45 8 67 12 78 12 75 8
75 90 l0 74 -27 -1 c-16 -1 -54 -6 -85 -11z"/>
<path d="M6430 9405 c0 -73 1 -75 30 -90 l30 -16 0 81 c0 77 -1 81 -26 90 -14
6 -27 10 -30 10 -2 0 -4 -34 -4 -75z"/>
<path d="M6015 9436 l-60 -11 -3 -78 -3 -78 43 6 c24 4 59 10 78 14 l35 7 3
77 c3 88 10 83 -93 63z"/>
<path d="M6522 9363 c3 -76 3 -77 36 -90 l32 -13 0 79 0 79 -31 11 c-18 6 -34
11 -36 11 -2 0 -3 -35 -1 -77z"/>
<path d="M5783 9397 l-63 -10 0 -75 0 -75 71 7 c39 3 75 9 80 12 5 3 9 39 9
80 0 84 9 78 -97 61z"/>
<path d="M6610 9325 c0 -72 1 -76 26 -85 14 -6 27 -10 30 -10 2 0 4 34 4 75 0
72 -1 76 -26 85 -14 6 -27 10 -30 10 -2 0 -4 -34 -4 -75z"/>
<path d="M5585 9363 c-16 -2 -45 -6 -62 -9 l-33 -5 0 -76 0 -75 48 6 c26 4 62
10 80 13 l32 5 0 74 c0 81 5 76 -65 67z"/>
<path d="M6700 9286 c0 -73 0 -74 30 -85 l30 -10 0 78 c0 73 -2 79 -22 85 -13
3 -26 6 -30 6 -5 0 -8 -33 -8 -74z"/>
<path d="M5340 9326 l-65 -11 -3 -79 -3 -78 33 6 c18 3 52 8 76 12 l42 7 0 78
c0 44 -3 78 -7 78 -5 -1 -37 -7 -73 -13z"/>
<path d="M5110 9286 l-65 -11 -3 -79 c-3 -77 -3 -78 20 -73 13 3 47 9 76 13
l52 7 0 78 c0 44 -3 78 -7 78 -5 -1 -37 -7 -73 -13z"/>
<path d="M6335 9224 c-5 -1 -43 -8 -82 -14 l-73 -12 0 -79 c0 -43 3 -79 8 -79
17 0 154 28 158 33 10 9 -1 154 -11 151z"/>
<path d="M6430 9145 c0 -73 1 -75 30 -90 l30 -16 0 80 c0 69 -3 82 -19 91 -37
19 -41 12 -41 -65z"/>
<path d="M6520 9110 c0 -78 1 -80 30 -95 16 -8 32 -15 35 -15 3 0 5 36 3 81
-3 81 -3 81 -35 94 l-33 14 0 -79z"/>
<path d="M6015 9173 c-71 -15 -65 -6 -65 -94 l0 -80 33 6 c17 3 52 9 77 13
l45 7 3 78 3 77 -38 -1 c-21 -1 -47 -3 -58 -6z"/>
<path d="M5790 9136 l-65 -11 -3 -78 c-2 -51 1 -77 8 -77 6 0 42 5 81 11 l69
12 0 78 c0 57 -3 79 -12 78 -7 -1 -42 -7 -78 -13z"/>
<path d="M6610 9071 c0 -74 1 -78 25 -89 14 -7 28 -12 30 -12 3 0 5 36 5 79 0
79 0 79 -30 90 l-30 10 0 -78z"/>
<path d="M5600 9109 c-25 -4 -60 -11 -77 -14 l-33 -6 0 -81 0 -80 33 5 c17 3
53 9 80 13 l47 6 0 84 c0 46 -1 84 -2 83 -2 -1 -23 -5 -48 -10z"/>
<path d="M6700 9037 c0 -80 1 -84 25 -95 14 -7 28 -12 30 -12 3 0 5 36 5 80 0
78 0 80 -30 95 l-30 16 0 -84z"/>
<path d="M5340 9066 l-65 -11 -3 -83 -3 -83 38 7 c21 3 54 9 73 13 l35 7 3 82
c2 45 -1 81 -5 81 -4 -1 -37 -7 -73 -13z"/>
<path d="M6790 8996 l0 -84 30 -11 30 -10 0 79 c0 78 0 80 -30 95 l-30 16 0
-85z"/>
<path d="M5103 9028 l-63 -10 0 -79 c0 -54 4 -79 12 -79 6 0 40 5 75 11 l63
11 0 79 c0 57 -3 79 -12 78 -7 -1 -41 -6 -75 -11z"/>
<path d="M6880 8959 c0 -76 1 -80 26 -89 14 -6 27 -10 30 -10 2 0 4 36 4 79 0
79 0 79 -30 90 l-30 10 0 -80z"/>
<path d="M4940 8920 c0 -47 4 -80 10 -80 6 0 10 33 10 80 0 47 -4 80 -10 80
-6 0 -10 -33 -10 -80z"/>
<path d="M6263 8981 l-83 -14 0 -79 c0 -76 1 -78 23 -73 12 2 49 9 81 15 33 5
61 12 63 14 2 2 3 37 1 78 l-3 74 -82 -15z"/>
<path d="M6430 8915 c0 -73 1 -75 30 -90 l30 -16 0 80 c0 69 -3 82 -19 91 -37
19 -41 12 -41 -65z"/>
<path d="M6003 8938 l-53 -10 0 -79 c0 -72 2 -80 18 -75 15 4 130 26 139 26 2
0 3 34 3 75 l0 75 -27 -1 c-16 -1 -52 -6 -80 -11z"/>
<path d="M6522 8873 c3 -76 3 -77 36 -90 l32 -13 0 78 c0 75 -1 79 -25 90 -43
20 -46 16 -43 -65z"/>
<path d="M5768 8898 l-48 -10 0 -75 0 -75 29 5 c15 3 51 9 80 13 l51 7 0 73 0
74 -32 -1 c-18 -1 -54 -6 -80 -11z"/>
<path d="M6610 8836 c0 -73 0 -74 30 -85 l30 -10 0 74 c0 63 -3 76 -19 85 -37
19 -41 12 -41 -64z"/>
<path d="M5555 8866 l-60 -11 -3 -78 -3 -78 33 6 c18 3 53 9 78 13 l45 7 3 78
c3 88 10 83 -93 63z"/>
<path d="M6700 8806 c0 -74 5 -86 43 -99 15 -6 17 2 17 72 0 74 -1 78 -25 89
-14 7 -28 12 -30 12 -3 0 -5 -33 -5 -74z"/>
<path d="M5328 8828 l-58 -10 0 -78 0 -77 53 9 c106 18 97 9 97 93 0 84 7 80
-92 63z"/>
<path d="M6790 8765 c0 -73 1 -75 30 -90 l30 -16 0 79 c0 75 -1 79 -25 90 -14
7 -28 12 -30 12 -3 0 -5 -34 -5 -75z"/>
<path d="M5098 8788 l-58 -10 0 -74 0 -74 43 5 c23 4 57 8 75 11 l32 5 0 74
c0 84 7 80 -92 63z"/>
<path d="M6880 8725 c0 -72 1 -76 26 -85 14 -6 27 -10 30 -10 2 0 4 33 4 73 0
69 -2 74 -25 85 -14 7 -28 12 -30 12 -3 0 -5 -34 -5 -75z"/>
<path d="M4940 8685 c0 -43 4 -75 10 -75 6 0 10 32 10 75 0 43 -4 75 -10 75
-6 0 -10 -32 -10 -75z"/>
<path d="M6265 8755 c-5 -2 -27 -6 -47 -10 l-38 -6 0 -78 0 -77 85 15 85 14 0
74 0 73 -37 -1 c-21 0 -42 -2 -48 -4z"/>
<path d="M6430 8687 c0 -69 2 -74 25 -85 14 -7 28 -12 30 -12 3 0 5 34 5 75 0
63 -3 76 -19 85 -37 19 -41 12 -41 -63z"/>
<path d="M6973 8685 c0 -44 2 -61 4 -37 2 23 2 59 0 80 -2 20 -4 1 -4 -43z"/>
<path d="M6075 8723 c-11 -2 -44 -9 -72 -14 l-53 -10 0 -75 c0 -84 -5 -81 97
-63 l63 11 0 79 c0 43 -3 78 -7 78 -5 -1 -17 -3 -28 -6z"/>
<path d="M6520 8651 c0 -74 1 -78 25 -89 43 -20 46 -16 43 64 -3 75 -3 76 -35
89 l-33 14 0 -78z"/>
<path d="M5815 8679 c-103 -19 -95 -10 -95 -95 l0 -76 28 6 c15 3 51 8 80 11
l52 7 0 79 c0 43 -3 78 -7 78 -5 -1 -30 -5 -58 -10z"/>
<path d="M6610 8611 c0 -79 0 -79 30 -90 l30 -10 0 74 c0 73 -1 75 -30 90
l-30 16 0 -80z"/>
<path d="M5620 8644 c-8 -1 -41 -6 -72 -9 l-58 -6 0 -80 c0 -72 2 -80 18 -75
9 2 37 7 62 11 83 12 80 8 80 91 0 41 -3 73 -7 73 -5 -1 -15 -3 -23 -5z"/>
<path d="M6700 8575 c0 -73 1 -75 30 -90 l30 -16 0 80 c0 79 0 79 -30 90 l-30
10 0 -74z"/>
<path d="M5360 8605 c-8 -2 -32 -6 -52 -10 l-38 -6 0 -76 0 -76 53 7 c102 14
97 9 97 92 0 79 -2 81 -60 69z"/>
<path d="M6790 8535 c0 -72 1 -76 26 -85 14 -6 27 -10 30 -10 2 0 4 34 4 75 0
72 -1 76 -26 85 -14 6 -27 10 -30 10 -2 0 -4 -34 -4 -75z"/>
<path d="M5125 8565 c-5 -2 -27 -6 -47 -10 l-38 -6 0 -74 c0 -51 4 -75 12 -75
6 0 40 5 75 11 l63 11 0 74 0 74 -27 -1 c-16 0 -32 -2 -38 -4z"/>
<path d="M6880 8495 c0 -72 1 -76 26 -85 14 -6 27 -10 30 -10 2 0 4 34 4 75 0
72 -1 76 -26 85 -14 6 -27 10 -30 10 -2 0 -4 -34 -4 -75z"/>
<path d="M6265 8524 c-44 -7 -81 -13 -82 -13 -2 -1 -3 -35 -3 -77 l0 -77 43 7
c23 4 61 10 85 13 l42 6 0 78 c0 44 -1 78 -2 78 -2 -1 -39 -8 -83 -15z"/>
<path d="M4940 8460 c0 -40 4 -70 10 -70 6 0 10 30 10 70 0 40 -4 70 -10 70
-6 0 -10 -30 -10 -70z"/>
<path d="M6430 8456 c0 -73 0 -74 30 -85 l30 -10 0 78 c0 73 -2 79 -22 85 -13
3 -26 6 -30 6 -5 0 -8 -33 -8 -74z"/>
<path d="M6973 8455 c0 -44 2 -61 4 -37 2 23 2 59 0 80 -2 20 -4 1 -4 -43z"/>
<path d="M6020 8486 l-65 -11 -3 -78 c-2 -48 1 -77 7 -77 6 0 42 5 81 12 l70
12 0 78 c0 56 -3 78 -12 77 -7 -1 -42 -7 -78 -13z"/>
<path d="M6520 8421 l0 -79 31 -11 c18 -6 34 -11 36 -11 2 0 3 35 1 77 -3 76
-3 77 -35 90 l-33 13 0 -79z"/>
<path d="M5790 8446 l-65 -11 -3 -79 -3 -79 29 6 c16 3 52 9 81 13 l51 7 0 78
c0 57 -3 79 -12 78 -7 -1 -42 -6 -78 -13z"/>
<path d="M6610 8380 c0 -78 0 -78 30 -89 l30 -10 0 79 c0 78 0 78 -30 89 l-30
10 0 -79z"/>
<path d="M5553 8407 l-63 -10 0 -73 c0 -84 -5 -81 97 -63 l63 11 0 74 c0 84 9
78 -97 61z"/>
<path d="M6700 8347 c0 -69 2 -74 25 -85 14 -7 28 -12 30 -12 3 0 5 33 5 73 0
69 -2 74 -25 85 -14 7 -28 12 -30 12 -3 0 -5 -33 -5 -73z"/>
<path d="M5365 8379 c-103 -19 -95 -10 -95 -95 l0 -76 33 6 c17 3 51 8 75 12
l42 7 0 78 c0 44 -1 78 -2 78 -2 -1 -25 -5 -53 -10z"/>
<path d="M6790 8312 c0 -75 1 -79 25 -90 14 -7 28 -12 30 -12 3 0 5 34 5 75 0
73 -1 75 -30 90 l-30 16 0 -79z"/>
<path d="M5130 8339 c-100 -21 -90 -11 -90 -95 l0 -76 33 6 c17 3 51 8 75 12
l42 7 0 78 c0 44 -3 79 -7 78 -5 -1 -28 -5 -53 -10z"/>
<path d="M6880 8267 c0 -69 2 -74 25 -85 14 -7 28 -12 30 -12 3 0 5 34 5 75 0
63 -3 76 -19 85 -37 19 -41 12 -41 -63z"/>
<path d="M4940 8235 c0 -43 4 -75 10 -75 6 0 10 32 10 75 0 43 -4 75 -10 75
-6 0 -10 -32 -10 -75z"/>
<path d="M6290 8299 c-25 -4 -60 -11 -77 -14 l-33 -6 0 -74 c0 -54 4 -75 13
-74 6 0 44 6 82 13 l70 12 3 77 c2 42 -1 77 -5 76 -4 -1 -28 -5 -53 -10z"/>
<path d="M6430 8232 c0 -77 0 -78 30 -89 l30 -11 0 74 c0 72 -1 74 -30 89
l-30 16 0 -79z"/>
<path d="M6973 8230 c0 -41 2 -58 4 -37 2 20 2 54 0 75 -2 20 -4 3 -4 -38z"/>
<path d="M6008 8258 l-58 -10 0 -80 0 -79 33 6 c17 3 52 9 77 13 l45 7 3 78
c3 88 10 84 -100 65z"/>
<path d="M6520 8191 c0 -66 3 -79 18 -84 9 -2 25 -8 35 -12 15 -6 17 0 17 69
0 74 -1 76 -30 91 -16 8 -31 15 -35 15 -3 0 -5 -35 -5 -79z"/>
<path d="M6610 8155 c0 -73 1 -75 30 -90 l30 -16 0 79 c0 75 -1 79 -25 90 -14
7 -28 12 -30 12 -3 0 -5 -34 -5 -75z"/>
<path d="M5548 8178 l-58 -10 0 -74 c0 -45 4 -74 11 -74 5 0 41 5 80 11 l69
12 0 73 c0 84 6 80 -102 62z"/>
<path d="M6700 8117 c0 -69 2 -74 25 -85 14 -7 28 -12 30 -12 3 0 5 33 5 73 0
69 -2 74 -25 85 -14 7 -28 12 -30 12 -3 0 -5 -33 -5 -73z"/>
<path d="M5340 8146 l-65 -11 -3 -79 c-3 -77 -3 -78 20 -73 13 3 47 9 76 13
l52 7 0 78 c0 44 -3 78 -7 78 -5 -1 -37 -7 -73 -13z"/>
<path d="M6790 8081 c0 -79 0 -79 30 -90 l30 -10 0 74 c0 73 -1 75 -30 90
l-30 16 0 -80z"/>
<path d="M2573 8107 c-20 -9 -23 -18 -23 -68 0 -53 2 -57 21 -52 27 7 31 19
27 80 -3 48 -4 50 -25 40z"/>
<path d="M2660 8059 c0 -64 -2 -62 83 -74 l47 -6 0 60 c0 51 -3 61 -17 62 -10
0 -39 4 -65 8 l-48 8 0 -58z"/>
<path d="M5103 8107 l-63 -10 0 -78 0 -78 28 5 c15 3 47 8 72 12 l45 7 3 78
c2 58 0 77 -10 76 -7 -1 -41 -6 -75 -12z"/>
<path d="M6880 8041 c0 -76 0 -77 30 -88 l30 -11 0 77 c0 76 0 77 -30 88 l-30
11 0 -77z"/>
<path d="M2493 8073 c-9 -3 -13 -26 -13 -65 0 -51 2 -59 16 -54 9 3 18 6 20 6
2 0 4 27 4 60 0 59 -2 64 -27 53z"/>
<path d="M2850 5590 l0 -2489 38 -6 c20 -4 45 -9 55 -12 16 -4 17 119 17 2490
l0 2494 -37 7 c-21 3 -46 6 -55 6 -17 0 -18 -125 -18 -2490z"/>
<path d="M4940 8005 c0 -43 4 -75 10 -75 6 0 10 32 10 75 0 43 -4 75 -10 75
-6 0 -10 -32 -10 -75z"/>
<path d="M6270 8069 c-97 -18 -90 -11 -90 -95 0 -65 2 -75 16 -70 9 3 47 9 85
12 l69 7 0 78 c0 88 4 84 -80 68z"/>
<path d="M6430 8002 c0 -77 0 -78 30 -89 l30 -11 0 78 c0 78 0 78 -30 89 l-30
10 0 -77z"/>
<path d="M6973 8000 c0 -47 2 -66 4 -42 2 23 2 61 0 85 -2 23 -4 4 -4 -43z"/>
<path d="M3020 8001 c0 -65 -2 -63 73 -76 l37 -6 0 60 0 60 -37 6 c-21 4 -46
9 -55 12 -16 4 -18 -3 -18 -56z"/>
<path d="M2417 8043 c-4 -3 -7 -32 -7 -64 0 -52 2 -57 20 -52 17 5 20 14 20
64 0 43 -4 59 -13 59 -8 0 -17 -3 -20 -7z"/>
<path d="M8578 8043 c-26 -4 -28 -8 -28 -49 0 -41 2 -45 20 -40 11 3 29 9 40
12 16 4 20 14 20 45 0 25 -4 38 -12 38 -7 -1 -25 -4 -40 -6z"/>
<path d="M6003 8028 l-53 -10 0 -79 c0 -72 2 -80 18 -75 9 3 35 8 57 11 91 14
85 7 85 90 l0 75 -27 -1 c-16 -1 -52 -6 -80 -11z"/>
<path d="M6522 7963 c3 -76 3 -77 36 -90 l32 -13 0 78 c0 75 -1 79 -25 90 -43
20 -46 16 -43 -65z"/>
<path d="M8730 8002 c0 -36 3 -39 36 -50 l35 -10 -3 46 c-3 45 -4 47 -35 50
-32 3 -33 2 -33 -36z"/>
<path d="M8440 8011 c-21 -6 -25 -14 -28 -50 l-3 -44 32 7 c17 3 35 6 40 6 5
0 9 20 9 45 0 47 -3 49 -50 36z"/>
<path d="M8860 7971 c0 -41 11 -51 56 -51 21 0 24 4 24 39 0 32 -4 40 -22 45
-50 13 -58 8 -58 -33z"/>
<path d="M5773 7988 l-53 -10 0 -77 0 -78 48 8 c26 5 62 11 80 14 l32 6 0 74
0 75 -27 -1 c-16 -1 -52 -6 -80 -11z"/>
<path d="M6610 7925 c0 -72 1 -76 26 -85 14 -6 27 -10 30 -10 2 0 4 34 4 75 0
72 -1 76 -26 85 -14 6 -27 10 -30 10 -2 0 -4 -34 -4 -75z"/>
<path d="M8335 7985 c-5 -2 -22 -6 -37 -9 l-28 -6 0 -2494 0 -2494 40 10 40
10 0 2494 c0 1372 -1 2494 -2 2493 -2 0 -7 -2 -13 -4z"/>
<path d="M9000 7941 c0 -45 1 -46 53 -55 l37 -7 0 40 c0 36 -3 41 -27 47 -16
3 -36 8 -45 11 -15 4 -18 -2 -18 -36z"/>
<path d="M6700 7890 c0 -78 0 -78 30 -89 l30 -10 0 74 c0 72 -1 74 -30 89
l-30 14 0 -78z"/>
<path d="M5575 7955 c-5 -2 -27 -6 -47 -10 l-38 -6 0 -75 0 -75 33 5 c17 3 53
8 80 11 l47 6 0 75 0 74 -32 -1 c-18 0 -37 -2 -43 -4z"/>
<path d="M8160 7941 c-21 -6 -26 -14 -28 -48 l-3 -41 40 10 c39 10 41 12 41
49 0 41 -4 43 -50 30z"/>
<path d="M2568 7933 c-15 -4 -18 -16 -18 -65 0 -51 2 -59 16 -54 9 3 20 6 25
6 5 0 9 27 9 60 0 33 -3 59 -7 59 -5 -1 -16 -3 -25 -6z"/>
<path d="M2660 7881 l0 -58 50 -7 c28 -4 57 -9 65 -12 12 -5 15 5 15 54 l0 60
-50 11 c-81 17 -80 18 -80 -48z"/>
<path d="M5400 7923 c-8 -1 -41 -5 -72 -8 l-58 -6 0 -78 0 -78 70 12 c39 7 73
14 76 17 3 3 4 37 2 74 -2 55 -6 69 -18 67z"/>
<path d="M6790 7850 c0 -67 1 -70 30 -85 l30 -16 0 80 c0 63 -3 80 -16 85 -39
15 -44 8 -44 -64z"/>
<path d="M8020 7911 c-21 -6 -25 -14 -28 -50 -3 -41 -2 -43 20 -37 13 3 29 6
36 6 8 0 12 16 12 45 0 25 -3 45 -7 44 -5 -1 -19 -4 -33 -8z"/>
<path d="M8583 7909 c-30 -9 -33 -13 -33 -49 0 -42 8 -47 58 -34 18 5 22 13
22 50 0 24 -3 44 -7 43 -5 0 -23 -5 -40 -10z"/>
<path d="M2493 7903 c-8 -3 -13 -26 -13 -63 0 -53 2 -58 20 -53 17 5 20 14 20
64 0 58 -2 63 -27 52z"/>
<path d="M8730 7865 c0 -29 4 -45 13 -45 6 0 22 -3 35 -6 20 -6 22 -3 22 34 0
44 -1 46 -42 56 -27 6 -28 5 -28 -39z"/>
<path d="M3020 7831 c0 -65 -2 -63 73 -76 l37 -6 0 60 0 60 -37 6 c-21 4 -46
9 -55 12 -16 4 -18 -3 -18 -56z"/>
<path d="M5098 7878 l-58 -10 0 -78 c0 -69 2 -78 18 -74 9 2 43 8 75 14 l57
11 0 75 c0 83 7 79 -92 62z"/>
<path d="M6880 7815 c0 -63 3 -76 19 -85 37 -19 41 -12 41 63 0 69 -2 74 -25
85 -14 7 -28 12 -30 12 -3 0 -5 -34 -5 -75z"/>
<path d="M2417 7873 c-4 -3 -7 -32 -7 -64 0 -52 2 -57 20 -52 17 5 20 14 20
64 0 43 -4 59 -13 59 -8 0 -17 -3 -20 -7z"/>
<path d="M7877 7873 c-4 -3 -7 -1128 -7 -2500 l0 -2493 25 0 25 0 0 2500 c0
2418 -1 2500 -18 2500 -10 0 -22 -3 -25 -7z"/>
<path d="M8433 7873 c-19 -4 -23 -11 -23 -45 0 -40 0 -40 31 -34 17 3 35 6 40
6 5 0 9 18 9 40 0 42 -3 44 -57 33z"/>
<path d="M8860 7840 c0 -43 1 -45 48 -55 32 -7 32 -6 32 33 0 38 -2 40 -40 50
l-40 10 0 -38z"/>
<path d="M4940 7775 c0 -43 4 -75 10 -75 6 0 10 32 10 75 0 43 -4 75 -10 75
-6 0 -10 -32 -10 -75z"/>
<path d="M6243 7837 l-63 -10 0 -77 0 -76 83 10 82 11 3 78 c3 88 12 83 -105
64z"/>
<path d="M6430 7770 c0 -44 3 -80 8 -80 4 0 17 -3 30 -6 21 -6 22 -4 22 68 0
70 -1 75 -25 86 -14 7 -28 12 -30 12 -3 0 -5 -36 -5 -80z"/>
<path d="M6973 7775 c0 -44 2 -61 4 -37 2 23 2 59 0 80 -2 20 -4 1 -4 -43z"/>
<path d="M9000 7801 c0 -34 3 -40 28 -45 15 -4 35 -9 45 -12 14 -4 17 1 17 35
0 38 -2 41 -37 50 -53 15 -53 15 -53 -28z"/>
<path d="M6045 7803 c-16 -2 -45 -6 -62 -9 l-33 -5 0 -74 c0 -85 -5 -82 97
-64 l63 11 0 74 c0 81 5 76 -65 67z"/>
<path d="M6520 7737 c0 -69 2 -74 25 -85 14 -7 30 -12 35 -12 12 0 14 147 3
153 -5 2 -20 7 -35 11 l-28 6 0 -73z"/>
<path d="M8153 7803 c-19 -4 -23 -11 -23 -45 0 -40 0 -40 31 -34 17 3 35 6 40
6 5 0 9 18 9 40 0 42 -3 44 -57 33z"/>
<path d="M5815 7769 c-103 -19 -95 -10 -95 -94 0 -46 4 -75 11 -75 5 0 41 5
80 11 l69 12 0 78 c0 44 -3 78 -7 78 -5 -1 -30 -5 -58 -10z"/>
<path d="M6610 7702 c0 -75 1 -79 25 -90 14 -7 28 -12 30 -12 3 0 5 34 5 75 0
73 -1 75 -30 90 l-30 16 0 -79z"/>
<path d="M8020 7771 c-21 -6 -26 -14 -28 -49 -3 -42 -3 -43 25 -36 42 10 43
12 43 55 0 21 -3 39 -7 38 -5 -1 -19 -4 -33 -8z"/>
<path d="M8573 7773 c-20 -4 -23 -11 -23 -49 l0 -46 33 7 c46 10 47 12 47 56
0 41 -3 42 -57 32z"/>
<path d="M8730 7741 c0 -35 4 -43 26 -51 40 -16 44 -13 44 35 0 29 -4 45 -12
45 -7 0 -23 3 -35 6 -21 6 -23 3 -23 -35z"/>
<path d="M2568 7763 c-15 -4 -18 -16 -18 -65 0 -51 2 -59 16 -54 9 3 20 6 25
6 5 0 9 27 9 60 0 33 -3 59 -7 59 -5 -1 -16 -3 -25 -6z"/>
<path d="M2660 7712 l0 -59 50 -7 c28 -4 57 -9 65 -12 12 -5 15 5 15 54 0 67
2 66 -82 78 l-48 6 0 -60z"/>
<path d="M8443 7739 c-30 -9 -33 -13 -33 -50 0 -41 0 -41 33 -34 46 10 47 12
47 56 0 21 -3 39 -7 38 -5 0 -23 -5 -40 -10z"/>
<path d="M8860 7711 c0 -35 3 -40 31 -50 47 -16 49 -15 49 29 0 41 -2 43 -52
54 -27 6 -28 5 -28 -33z"/>
<path d="M2498 7732 c-15 -3 -18 -14 -18 -63 0 -46 3 -59 15 -59 21 0 27 19
23 76 -2 41 -6 49 -20 46z"/>
<path d="M5585 7729 c-103 -19 -95 -10 -95 -94 0 -46 4 -75 11 -75 5 0 41 5
80 11 l69 12 0 78 c0 44 -3 78 -7 78 -5 -1 -30 -5 -58 -10z"/>
<path d="M2428 7702 c-15 -3 -18 -14 -18 -63 0 -32 3 -59 8 -59 24 1 33 20 30
71 -3 46 -6 54 -20 51z"/>
<path d="M3020 7653 l0 -60 38 -7 c73 -12 72 -12 72 54 0 50 -3 60 -17 60 -10
0 -35 3 -55 6 l-38 7 0 -60z"/>
<path d="M9000 7672 c0 -40 1 -41 43 -49 l42 -9 3 34 c4 42 -2 48 -50 57 l-38
7 0 -40z"/>
<path d="M5338 7687 l-68 -10 0 -75 0 -75 53 7 c102 14 97 9 97 92 0 41 -3 73
-7 72 -5 0 -38 -6 -75 -11z"/>
<path d="M6790 7625 c0 -72 1 -74 30 -89 l30 -14 0 77 c0 76 0 77 -30 88 l-30
11 0 -73z"/>
<path d="M8153 7673 c-20 -4 -23 -11 -23 -49 l0 -46 33 7 c46 10 47 12 47 56
0 41 -3 42 -57 32z"/>
<path d="M9140 7642 c0 -39 2 -42 38 -51 52 -15 52 -15 52 28 0 45 -1 47 -53
56 l-37 7 0 -40z"/>
<path d="M5125 7655 c-5 -2 -27 -6 -47 -10 l-38 -6 0 -74 c0 -51 4 -75 12 -75
6 0 40 5 75 11 l63 11 0 74 0 74 -27 -1 c-16 0 -32 -2 -38 -4z"/>
<path d="M6880 7585 c0 -72 1 -76 26 -85 14 -6 27 -10 30 -10 2 0 4 33 4 73 0
69 -2 74 -25 85 -14 7 -28 12 -30 12 -3 0 -5 -34 -5 -75z"/>
<path d="M8023 7636 c-30 -8 -33 -12 -33 -48 0 -39 0 -40 33 -33 41 9 39 6 35
52 -3 39 -3 39 -35 29z"/>
<path d="M8588 7637 c-36 -9 -38 -11 -38 -49 l0 -40 38 7 c20 4 38 8 40 10 2
2 2 20 0 42 l-3 39 -37 -9z"/>
<path d="M9290 7604 c0 -37 3 -44 19 -44 11 0 26 -3 35 -6 13 -5 16 2 16 35 0
23 -1 41 -3 41 -1 0 -17 4 -35 9 l-32 10 0 -45z"/>
<path d="M8730 7600 c0 -25 5 -40 13 -40 6 0 22 -3 35 -6 20 -6 22 -3 22 34 0
33 -4 41 -22 46 -43 11 -48 7 -48 -34z"/>
<path d="M6233 7607 l-53 -10 0 -79 c0 -71 2 -79 18 -75 9 3 35 8 57 11 103
16 95 9 95 92 l0 74 -32 -1 c-18 -1 -57 -6 -85 -12z"/>
<path d="M6430 7545 c0 -73 1 -75 30 -90 l30 -16 0 80 c0 69 -3 82 -19 91 -37
19 -41 12 -41 -65z"/>
<path d="M6973 7545 c0 -44 2 -61 4 -37 2 23 2 59 0 80 -2 20 -4 1 -4 -43z"/>
<path d="M8440 7601 c-21 -6 -26 -14 -28 -50 -3 -39 -1 -42 17 -37 12 3 30 9
41 12 16 4 20 14 20 45 0 41 -4 43 -50 30z"/>
<path d="M8860 7572 c0 -38 2 -40 40 -50 l40 -10 0 38 c0 43 -1 45 -47 55 -33
7 -33 6 -33 -33z"/>
<path d="M2573 7590 c-20 -8 -23 -16 -23 -69 l0 -61 25 12 c23 10 25 17 25 70
0 32 -1 58 -2 57 -2 0 -13 -4 -25 -9z"/>
<path d="M2660 7541 c0 -66 -8 -60 93 -77 l37 -6 0 60 0 60 -47 6 c-27 4 -56
9 -65 12 -16 5 -18 -2 -18 -55z"/>
<path d="M6003 7568 l-53 -10 0 -74 c0 -45 4 -74 11 -74 5 0 41 5 80 11 l69
12 0 73 0 74 -27 -1 c-16 -1 -52 -6 -80 -11z"/>
<path d="M6520 7506 l0 -74 31 -11 c18 -6 34 -11 35 -11 2 0 4 33 4 73 0 69
-2 74 -25 85 -14 7 -30 12 -35 12 -6 0 -10 -33 -10 -74z"/>
<path d="M9000 7539 c0 -43 2 -45 53 -54 l37 -7 0 39 c0 39 -1 40 -45 50 l-45
10 0 -38z"/>
<path d="M2480 7500 c0 -53 2 -60 20 -60 18 0 20 7 20 60 0 53 -2 60 -20 60
-18 0 -20 -7 -20 -60z"/>
<path d="M5790 7536 l-65 -11 -3 -79 -3 -79 29 6 c16 3 52 9 81 13 l51 7 0 78
c0 57 -3 79 -12 78 -7 -1 -42 -7 -78 -13z"/>
<path d="M6610 7470 c0 -78 0 -78 30 -89 l30 -10 0 79 c0 78 0 78 -30 89 l-30
10 0 -79z"/>
<path d="M2423 7533 c-9 -3 -13 -26 -13 -65 0 -51 2 -59 16 -54 9 3 18 6 20 6
2 0 4 27 4 60 0 59 -2 64 -27 53z"/>
<path d="M3020 7483 l0 -60 38 -7 c73 -12 72 -12 72 54 0 50 -3 60 -17 60 -10
0 -35 3 -55 6 l-38 7 0 -60z"/>
<path d="M8148 7533 c-14 -3 -18 -15 -18 -50 0 -37 3 -44 16 -39 9 3 27 9 40
12 20 5 24 12 24 45 0 41 -10 46 -62 32z"/>
<path d="M9140 7501 c0 -34 3 -40 28 -45 15 -4 35 -9 45 -12 14 -5 17 1 17 39
0 42 -2 45 -31 51 -55 11 -59 9 -59 -33z"/>
<path d="M5555 7496 l-60 -11 -3 -78 -3 -78 33 6 c18 3 53 9 78 13 l45 7 3 78
c3 88 10 83 -93 63z"/>
<path d="M6700 7431 c0 -79 0 -79 30 -90 l30 -10 0 78 c0 74 -1 78 -25 89 -14
7 -28 12 -30 12 -3 0 -5 -36 -5 -79z"/>
<path d="M8023 7498 c-30 -8 -33 -12 -33 -48 0 -39 0 -39 31 -30 41 12 41 12
37 52 -3 34 -4 34 -35 26z"/>
<path d="M8583 7499 c-30 -9 -33 -13 -33 -49 0 -39 1 -40 28 -34 50 11 52 13
52 54 0 22 -3 40 -7 39 -5 0 -23 -5 -40 -10z"/>
<path d="M8730 7471 c0 -43 1 -45 43 -55 26 -6 27 -5 27 33 0 35 -3 40 -31 50
-18 6 -34 11 -35 11 -2 0 -4 -18 -4 -39z"/>
<path d="M9290 7470 c0 -36 3 -40 33 -48 31 -8 32 -8 35 26 4 39 -2 47 -40 56
-27 6 -28 5 -28 -34z"/>
<path d="M5328 7458 l-58 -10 0 -75 0 -75 33 5 c17 3 51 9 75 12 l42 7 0 74
c0 83 7 79 -92 62z"/>
<path d="M6790 7397 c0 -69 2 -74 25 -85 14 -7 28 -12 30 -12 3 0 5 33 5 73 0
69 -2 74 -25 85 -14 7 -28 12 -30 12 -3 0 -5 -33 -5 -73z"/>
<path d="M8433 7463 c-19 -4 -23 -11 -23 -45 0 -40 0 -40 31 -34 17 3 35 6 40
6 5 0 9 18 9 40 0 42 -3 44 -57 33z"/>
<path d="M8860 7435 c0 -29 5 -37 26 -45 45 -18 54 -13 54 29 0 35 -3 39 -31
45 -48 9 -49 9 -49 -29z"/>
<path d="M5130 7429 c-100 -21 -90 -11 -90 -95 l0 -76 33 6 c17 3 51 8 75 12
l42 7 0 78 c0 44 -3 79 -7 78 -5 -1 -28 -5 -53 -10z"/>
<path d="M9000 7402 c0 -39 2 -42 38 -51 52 -15 52 -15 52 28 0 45 -1 47 -53
56 l-37 7 0 -40z"/>
<path d="M6880 7357 c0 -69 2 -74 25 -85 14 -7 28 -12 30 -12 3 0 5 34 5 75 0
63 -3 76 -19 85 -37 19 -41 12 -41 -63z"/>
<path d="M2563 7413 c-13 -5 -19 -123 -7 -123 3 0 14 5 25 10 15 9 19 22 19
65 0 55 -5 61 -37 48z"/>
<path d="M2660 7367 c0 -62 -1 -61 83 -73 l47 -6 0 55 c0 62 1 61 -82 73 l-48
6 0 -55z"/>
<path d="M4940 7320 c0 -47 4 -80 10 -80 6 0 10 33 10 80 0 47 -4 80 -10 80
-6 0 -10 -33 -10 -80z"/>
<path d="M6290 7389 c-25 -4 -60 -11 -77 -14 l-33 -6 0 -79 c0 -59 3 -78 13
-75 6 2 45 9 85 15 l72 12 0 79 c0 43 -3 79 -7 78 -5 -1 -28 -5 -53 -10z"/>
<path d="M6430 7322 c0 -75 1 -79 25 -90 14 -7 28 -12 30 -12 3 0 5 34 5 75 0
73 -1 75 -30 90 l-30 16 0 -79z"/>
<path d="M2498 7379 c-14 -8 -18 -23 -18 -64 0 -30 3 -55 8 -55 25 1 33 20 30
73 -3 50 -5 55 -20 46z"/>
<path d="M6973 7315 c0 -44 2 -61 4 -37 2 23 2 59 0 80 -2 20 -4 1 -4 -43z"/>
<path d="M8020 7361 c-20 -5 -26 -14 -28 -44 -3 -39 2 -42 46 -31 18 5 22 13
22 45 0 22 -3 39 -7 38 -5 -1 -19 -4 -33 -8z"/>
<path d="M8580 7361 c-21 -6 -26 -14 -28 -48 l-3 -41 40 10 c39 10 41 12 41
49 0 41 -4 43 -50 30z"/>
<path d="M8730 7331 c0 -37 3 -41 33 -49 32 -8 32 -8 35 31 4 46 6 43 -35 52
-33 7 -33 7 -33 -34z"/>
<path d="M9290 7332 c0 -33 4 -41 23 -46 42 -11 47 -7 47 34 0 25 -5 40 -12
40 -7 0 -23 3 -35 6 -21 6 -23 3 -23 -34z"/>
<path d="M2428 7349 c-14 -8 -18 -23 -18 -64 0 -30 3 -55 8 -55 25 1 33 20 30
73 -3 50 -5 55 -20 46z"/>
<path d="M3020 7305 c0 -60 0 -60 68 -69 l42 -6 0 54 c0 30 -3 57 -7 59 -5 3
-29 8 -55 11 l-48 7 0 -56z"/>
<path d="M6520 7281 c0 -66 3 -79 18 -84 9 -2 25 -8 35 -12 16 -7 18 -1 15 70
-3 76 -3 77 -35 90 l-33 14 0 -78z"/>
<path d="M6035 7345 c-5 -2 -27 -6 -47 -10 l-38 -6 0 -76 c0 -73 1 -75 23 -69
13 3 49 8 80 12 l57 7 0 73 0 74 -32 -1 c-18 0 -37 -2 -43 -4z"/>
<path d="M8448 7327 c-36 -9 -38 -11 -38 -49 0 -39 0 -40 33 -33 43 9 49 17
45 57 -3 34 -3 34 -40 25z"/>
<path d="M8860 7301 c0 -44 1 -46 48 -56 32 -7 32 -6 32 34 0 41 2 40 -62 57
-15 5 -18 -1 -18 -35z"/>
<path d="M5778 7308 l-58 -10 0 -79 c0 -44 3 -79 8 -78 4 0 39 6 77 13 l70 12
3 77 c3 88 10 84 -100 65z"/>
<path d="M6610 7245 c0 -73 1 -75 30 -90 l30 -16 0 79 c0 75 -1 79 -25 90 -14
7 -28 12 -30 12 -3 0 -5 -34 -5 -75z"/>
<path d="M9000 7265 c0 -38 3 -44 28 -49 15 -4 35 -9 45 -12 14 -5 17 1 17 39
0 44 0 44 -45 54 l-45 10 0 -42z"/>
<path d="M6700 7205 c0 -73 1 -75 30 -90 l30 -16 0 79 c0 75 -1 79 -25 90 -14
7 -28 12 -30 12 -3 0 -5 -34 -5 -75z"/>
<path d="M8160 7261 c-21 -6 -26 -14 -28 -48 l-3 -41 40 10 c39 10 41 12 41
49 0 41 -4 43 -50 30z"/>
<path d="M9140 7230 c0 -22 3 -40 8 -40 4 0 24 -4 45 -9 l37 -9 0 39 c0 36 -2
39 -37 48 -53 15 -53 15 -53 -29z"/>
<path d="M2573 7238 c-20 -10 -23 -19 -23 -69 l0 -59 25 12 c23 10 25 17 25
70 0 32 -1 58 -2 57 -2 0 -13 -5 -25 -11z"/>
<path d="M2660 7189 l0 -57 38 -6 c20 -4 49 -9 65 -12 l27 -6 0 60 0 59 -65 9
-65 10 0 -57z"/>
<path d="M5323 7228 l-53 -10 0 -74 0 -74 43 5 c23 4 57 8 75 11 l32 5 0 74
c0 85 5 82 -97 63z"/>
<path d="M8013 7223 c-19 -4 -23 -11 -23 -45 0 -37 2 -40 23 -34 12 3 28 6 35
6 7 0 12 15 12 40 0 41 -1 42 -47 33z"/>
<path d="M8573 7223 c-19 -4 -23 -11 -23 -45 0 -40 0 -40 31 -34 17 3 35 6 40
6 5 0 9 18 9 40 0 42 -3 44 -57 33z"/>
<path d="M8730 7191 c0 -32 4 -40 23 -45 42 -11 47 -7 47 33 0 32 -4 40 -22
45 -43 11 -48 7 -48 -33z"/>
<path d="M9290 7190 c0 -33 3 -40 19 -40 11 0 26 -3 35 -6 13 -5 16 1 16 34 0
33 -4 41 -22 46 -43 11 -48 7 -48 -34z"/>
<path d="M2493 7203 c-9 -3 -13 -26 -13 -64 0 -57 1 -59 20 -49 16 9 20 21 20
65 0 54 -3 58 -27 48z"/>
<path d="M5073 7193 l-33 -4 0 -79 0 -79 28 5 c15 3 47 8 72 12 l45 7 3 73 3
72 -43 -2 c-24 0 -58 -3 -75 -5z"/>
<path d="M6880 7127 c0 -72 0 -73 30 -84 l30 -11 0 78 c0 72 -2 78 -22 84 -13
3 -26 6 -30 6 -5 0 -8 -33 -8 -73z"/>
<path d="M8433 7193 c-20 -4 -23 -11 -23 -49 0 -38 3 -45 18 -40 64 17 62 16
62 57 0 41 -3 42 -57 32z"/>
<path d="M8860 7161 c0 -41 -2 -40 63 -57 14 -5 17 2 17 39 0 38 -3 46 -22 51
-50 13 -58 8 -58 -33z"/>
<path d="M2428 7179 c-14 -8 -18 -23 -18 -64 0 -30 3 -55 8 -55 25 1 33 20 30
73 -3 50 -5 55 -20 46z"/>
<path d="M3020 7130 c0 -50 3 -60 18 -60 9 0 34 -3 55 -6 l37 -7 0 56 c0 60 1
59 -72 72 l-38 6 0 -61z"/>
<path d="M4940 7095 c0 -43 4 -75 10 -75 6 0 10 32 10 75 0 43 -4 75 -10 75
-6 0 -10 -32 -10 -75z"/>
<path d="M6275 7159 c-103 -19 -95 -10 -95 -94 0 -85 -7 -81 100 -63 l70 12 0
78 c0 56 -3 78 -12 77 -7 -1 -35 -5 -63 -10z"/>
<path d="M6430 7090 c0 -78 0 -78 30 -89 l30 -10 0 79 c0 78 0 78 -30 89 l-30
10 0 -79z"/>
<path d="M6973 7090 c0 -47 2 -66 4 -42 2 23 2 61 0 85 -2 23 -4 4 -4 -43z"/>
<path d="M9000 7125 c0 -43 1 -45 29 -45 16 0 36 -3 45 -6 13 -5 16 2 16 34 0
39 -2 42 -37 51 -54 15 -53 16 -53 -34z"/>
<path d="M6040 7119 c-97 -18 -90 -11 -90 -94 0 -73 1 -75 23 -71 12 3 48 8
80 11 l57 6 0 80 c0 57 -3 79 -12 78 -7 -1 -33 -5 -58 -10z"/>
<path d="M6520 7050 l0 -79 33 -9 32 -8 3 64 c4 80 1 87 -37 100 l-31 11 0
-79z"/>
<path d="M8153 7123 c-19 -4 -23 -11 -23 -45 0 -40 0 -40 31 -34 17 3 35 6 40
6 5 0 9 18 9 40 0 42 -3 44 -57 33z"/>
<path d="M9140 7096 c0 -40 2 -42 53 -51 l37 -7 0 40 c0 36 -3 40 -31 46 -54
11 -59 8 -59 -28z"/>
<path d="M8023 7089 c-30 -9 -33 -13 -33 -49 0 -22 2 -40 4 -40 1 0 17 5 35
11 28 10 31 15 31 50 0 21 -1 39 -2 38 -2 0 -18 -5 -35 -10z"/>
<path d="M8583 7089 c-30 -9 -33 -13 -33 -50 0 -41 0 -41 33 -34 46 10 47 12
47 56 0 21 -3 39 -7 38 -5 0 -23 -5 -40 -10z"/>
<path d="M8730 7060 c0 -42 2 -44 43 -54 26 -6 27 -5 27 34 0 22 -1 40 -3 40
-1 0 -17 4 -35 9 l-32 10 0 -39z"/>
<path d="M9290 7060 c0 -36 3 -40 33 -48 31 -8 32 -8 35 26 4 40 4 40 -37 52
-31 9 -31 9 -31 -30z"/>
<path d="M5830 7084 c-14 -3 -44 -7 -67 -10 l-43 -5 0 -78 0 -78 48 8 c26 5
62 11 80 14 l32 6 0 74 c0 54 -3 75 -12 74 -7 -1 -24 -3 -38 -5z"/>
<path d="M6610 7014 c0 -62 3 -75 19 -84 38 -20 42 -13 39 67 -3 74 -4 77 -30
84 l-28 7 0 -74z"/>
<path d="M2573 7067 c-20 -9 -23 -18 -23 -68 0 -53 2 -57 21 -52 27 7 31 19
27 80 -3 48 -4 50 -25 40z"/>
<path d="M2660 7017 c0 -61 -7 -56 93 -73 l37 -6 0 55 c0 31 -3 58 -7 60 -5 3
-34 8 -65 12 l-58 7 0 -55z"/>
<path d="M8860 7031 c0 -41 -2 -40 63 -57 14 -5 17 2 17 39 0 42 -2 45 -31 51
-48 9 -49 9 -49 -33z"/>
<path d="M5575 7045 c-5 -2 -27 -6 -47 -10 l-38 -6 0 -76 0 -75 58 7 c108 13
102 7 102 91 l0 74 -32 -1 c-18 0 -37 -2 -43 -4z"/>
<path d="M6700 6977 c0 -69 2 -74 25 -85 14 -7 28 -12 30 -12 3 0 5 34 5 75 0
72 -1 76 -26 85 -14 6 -27 10 -30 10 -2 0 -4 -33 -4 -73z"/>
<path d="M2498 7033 c-15 -4 -18 -16 -18 -63 0 -53 2 -58 20 -53 17 5 20 14
20 64 0 33 -1 58 -2 58 -2 -1 -11 -3 -20 -6z"/>
<path d="M9000 7001 c0 -38 2 -41 38 -50 52 -15 52 -15 52 28 0 34 -3 40 -27
45 -16 4 -36 9 -45 12 -15 4 -18 -1 -18 -35z"/>
<path d="M2428 7003 c-15 -4 -18 -16 -18 -63 0 -53 2 -58 20 -53 17 5 20 14
20 64 0 33 -1 58 -2 58 -2 -1 -11 -3 -20 -6z"/>
<path d="M3020 6957 c0 -60 -1 -59 73 -72 l37 -6 0 61 c0 50 -3 60 -17 60 -10
0 -35 3 -55 6 l-38 7 0 -56z"/>
<path d="M6790 6937 c0 -69 2 -74 25 -85 14 -7 28 -12 30 -12 3 0 5 34 5 75 0
63 -3 76 -19 85 -37 19 -41 12 -41 -63z"/>
<path d="M8168 6988 c-36 -9 -38 -12 -38 -49 0 -43 2 -44 49 -28 28 10 31 15
31 50 0 21 -1 39 -2 38 -2 -1 -20 -6 -40 -11z"/>
<path d="M9140 6961 c0 -38 2 -41 38 -50 52 -15 52 -15 52 28 0 34 -3 40 -27
45 -16 4 -36 9 -45 12 -15 4 -18 -1 -18 -35z"/>
<path d="M5113 6966 l-73 -9 0 -77 0 -77 70 12 c39 7 73 14 76 17 3 3 4 37 2
74 l-3 69 -72 -9z"/>
<path d="M9292 6926 c3 -37 6 -41 36 -47 l32 -6 0 42 c0 42 -1 43 -35 47 l-36
4 3 -40z"/>
<path d="M8568 6953 c-14 -3 -18 -15 -18 -48 0 -31 4 -43 13 -41 6 3 24 7 40
10 24 6 27 11 27 46 0 42 -10 47 -62 33z"/>
<path d="M8730 6922 c0 -38 3 -42 33 -50 32 -8 32 -8 35 31 4 46 4 45 -36 53
-32 6 -32 6 -32 -34z"/>
<path d="M4940 6865 c0 -43 4 -75 10 -75 6 0 10 32 10 75 0 43 -4 75 -10 75
-6 0 -10 -32 -10 -75z"/>
<path d="M6243 6927 l-63 -10 0 -78 c0 -57 4 -79 13 -78 6 0 44 6 82 12 l70
12 3 78 c3 88 12 83 -105 64z"/>
<path d="M6430 6862 c0 -77 0 -78 30 -89 l30 -11 0 77 c0 74 -1 78 -25 89 -14
7 -28 12 -30 12 -3 0 -5 -35 -5 -78z"/>
<path d="M6973 6865 c0 -44 2 -61 4 -37 2 23 2 59 0 80 -2 20 -4 1 -4 -43z"/>
<path d="M8440 6921 c-21 -6 -26 -14 -28 -47 l-3 -40 41 4 40 4 0 44 c0 46 -3
48 -50 35z"/>
<path d="M8862 6889 c3 -42 5 -44 41 -50 l37 -6 0 38 c0 42 -1 44 -48 54 l-33
7 3 -43z"/>
<path d="M2573 6889 c-20 -7 -23 -15 -23 -64 0 -55 8 -65 38 -46 9 5 12 26 10
63 -3 53 -4 55 -25 47z"/>
<path d="M2660 6842 l0 -60 48 -6 c26 -4 55 -9 65 -12 15 -5 17 2 17 54 l0 60
-47 6 c-27 4 -56 9 -65 12 -16 5 -18 -2 -18 -54z"/>
<path d="M6013 6887 l-63 -10 0 -78 c0 -57 4 -79 13 -78 6 0 41 6 77 13 l65
12 3 77 c3 87 12 81 -95 64z"/>
<path d="M6520 6821 c0 -66 3 -79 18 -84 9 -2 25 -8 35 -12 15 -6 17 0 17 69
0 74 -1 76 -30 91 -16 8 -31 15 -35 15 -3 0 -5 -35 -5 -79z"/>
<path d="M9000 6859 c0 -43 2 -45 53 -54 l37 -7 0 39 c0 39 -1 40 -45 50 l-45
10 0 -38z"/>
<path d="M2493 6853 c-9 -3 -13 -26 -13 -64 0 -57 1 -59 20 -49 16 9 20 21 20
65 0 54 -3 58 -27 48z"/>
<path d="M5778 6848 l-58 -10 0 -74 c0 -84 -5 -81 97 -63 l63 11 0 74 c0 84 7
80 -102 62z"/>
<path d="M6610 6787 c0 -69 2 -74 25 -85 14 -7 28 -12 30 -12 3 0 5 33 5 73 0
69 -2 74 -25 85 -14 7 -28 12 -30 12 -3 0 -5 -33 -5 -73z"/>
<path d="M8158 6848 c-24 -8 -28 -15 -28 -48 l0 -38 40 10 c38 10 40 12 40 49
0 42 -6 45 -52 27z"/>
<path d="M9140 6821 c0 -34 3 -40 28 -45 15 -4 35 -9 45 -12 14 -4 17 1 17 35
0 38 -2 41 -37 50 -53 15 -53 15 -53 -28z"/>
<path d="M2428 6829 c-14 -8 -18 -23 -18 -64 0 -30 3 -55 8 -55 25 1 33 20 30
73 -3 50 -5 55 -20 46z"/>
<path d="M5585 6819 c-103 -19 -95 -10 -95 -94 0 -46 4 -75 11 -75 5 0 41 5
80 11 l69 12 0 78 c0 44 -3 78 -7 78 -5 -1 -30 -5 -58 -10z"/>
<path d="M6700 6752 c0 -75 1 -79 25 -90 14 -7 28 -12 30 -12 3 0 5 34 5 75 0
73 -1 75 -30 90 l-30 16 0 -79z"/>
<path d="M8018 6818 c-24 -8 -28 -15 -28 -50 0 -37 2 -40 23 -34 12 3 28 6 35
6 8 0 12 16 12 45 0 48 -1 49 -42 33z"/>
<path d="M8583 6819 c-30 -9 -33 -13 -33 -51 0 -40 0 -40 31 -34 17 3 35 6 40
6 5 0 9 20 9 45 0 25 -3 45 -7 44 -5 0 -23 -5 -40 -10z"/>
<path d="M8730 6786 c0 -37 4 -45 23 -50 42 -11 47 -7 47 33 0 35 -3 40 -31
50 -18 6 -34 11 -35 11 -2 0 -4 -20 -4 -44z"/>
<path d="M9290 6785 c0 -29 4 -45 13 -45 6 0 22 -3 35 -6 20 -6 22 -3 22 34 0
44 -1 46 -42 56 -27 6 -28 5 -28 -39z"/>
<path d="M5340 6776 l-65 -11 -3 -79 c-3 -77 -3 -78 20 -73 13 3 47 9 76 13
l52 7 0 78 c0 44 -3 78 -7 78 -5 -1 -37 -7 -73 -13z"/>
<path d="M6790 6711 c0 -79 0 -79 30 -90 l30 -10 0 74 c0 73 -1 75 -30 90
l-30 16 0 -80z"/>
<path d="M8433 6783 c-19 -4 -23 -11 -23 -45 0 -40 0 -40 31 -34 17 3 35 6 40
6 5 0 9 18 9 40 0 42 -3 44 -57 33z"/>
<path d="M8860 6755 c0 -29 5 -37 26 -45 45 -18 54 -13 54 29 0 35 -3 39 -31
45 -48 9 -49 9 -49 -29z"/>
<path d="M9000 6721 c0 -38 2 -41 38 -50 52 -15 52 -15 52 28 0 34 -3 40 -27
45 -16 4 -36 9 -45 12 -15 4 -18 -1 -18 -35z"/>
<path d="M5103 6737 l-63 -11 0 -74 0 -74 48 6 c110 15 102 8 102 92 0 53 -3
74 -12 72 -7 0 -41 -6 -75 -11z"/>
<path d="M6880 6674 c0 -71 1 -75 26 -84 14 -6 27 -10 30 -10 2 0 4 33 4 73 0
72 0 73 -30 84 l-30 11 0 -74z"/>
<path d="M2563 6713 c-9 -3 -13 -26 -13 -64 0 -56 1 -58 23 -50 19 7 22 17 25
65 3 56 -2 63 -35 49z"/>
<path d="M2660 6665 c0 -62 -1 -61 78 -69 l52 -5 0 58 0 58 -46 7 c-86 11 -84
12 -84 -49z"/>
<path d="M8148 6713 c-14 -3 -18 -15 -18 -45 0 -40 0 -40 31 -34 17 3 35 6 40
6 5 0 9 18 9 40 0 42 -10 47 -62 33z"/>
<path d="M9140 6685 c0 -29 5 -37 26 -45 51 -20 64 -14 64 29 0 41 -13 51 -67
51 -20 0 -23 -5 -23 -35z"/>
<path d="M4940 6635 c0 -43 4 -75 10 -75 6 0 10 32 10 75 0 43 -4 75 -10 75
-6 0 -10 -32 -10 -75z"/>
<path d="M6238 6698 l-58 -10 0 -79 c0 -44 1 -79 3 -79 1 0 37 7 80 15 43 8
81 15 83 15 2 0 4 34 4 75 l0 75 -27 -1 c-16 -1 -54 -6 -85 -11z"/>
<path d="M6430 6635 c0 -73 1 -75 30 -90 l30 -16 0 80 c0 69 -3 82 -19 91 -37
19 -41 12 -41 -65z"/>
<path d="M6973 6635 c0 -44 2 -61 4 -37 2 23 2 59 0 80 -2 20 -4 1 -4 -43z"/>
<path d="M2493 6683 c-9 -3 -13 -26 -13 -64 0 -57 1 -59 20 -49 16 9 20 21 20
65 0 54 -3 58 -27 48z"/>
<path d="M8020 6681 c-20 -5 -26 -14 -28 -45 -3 -37 -3 -37 30 -34 31 3 33 5
36 46 2 23 0 42 -5 41 -4 -1 -19 -4 -33 -8z"/>
<path d="M8580 6681 c-21 -6 -26 -14 -28 -47 l-3 -41 38 6 c36 6 38 8 41 49 3
44 0 46 -48 33z"/>
<path d="M8732 6649 c3 -40 6 -44 36 -50 l32 -6 0 43 c0 29 -4 44 -12 44 -7 0
-23 3 -36 6 -22 6 -23 4 -20 -37z"/>
<path d="M9290 6652 c0 -41 11 -52 51 -52 16 0 19 7 19 40 0 25 -5 40 -12 40
-7 0 -23 3 -35 6 -21 6 -23 3 -23 -34z"/>
<path d="M6003 6657 l-53 -10 0 -79 c0 -71 2 -79 18 -74 9 2 37 7 62 11 83 12
80 8 80 91 l0 74 -27 -1 c-16 -1 -52 -6 -80 -12z"/>
<path d="M6522 6593 c3 -76 3 -77 36 -90 l32 -13 0 78 c0 75 -1 79 -25 90 -43
20 -46 16 -43 -65z"/>
<path d="M2423 6653 c-9 -3 -13 -26 -13 -64 0 -57 1 -59 20 -49 16 9 20 21 20
65 0 54 -3 58 -27 48z"/>
<path d="M3020 6605 l0 -54 38 -6 c20 -4 45 -9 55 -12 15 -4 17 3 17 55 l0 59
-37 7 c-73 12 -73 11 -73 -49z"/>
<path d="M8448 6647 c-36 -9 -38 -11 -38 -49 0 -39 0 -40 33 -33 43 9 49 17
45 57 -3 34 -3 34 -40 25z"/>
<path d="M8860 6622 c0 -36 3 -41 31 -51 47 -16 49 -15 49 28 0 33 -4 41 -22
46 -61 18 -58 19 -58 -23z"/>
<path d="M5773 6618 l-53 -10 0 -75 0 -75 29 5 c15 3 51 9 80 13 l51 7 0 73 0
74 -27 -1 c-16 -1 -52 -6 -80 -11z"/>
<path d="M6610 6556 c0 -73 0 -74 30 -85 l30 -10 0 75 c0 71 -1 75 -26 84 -14
6 -27 10 -30 10 -2 0 -4 -33 -4 -74z"/>
<path d="M9000 6582 c0 -40 1 -41 43 -49 l42 -9 3 34 c4 42 -2 48 -50 57 l-38
7 0 -40z"/>
<path d="M5560 6586 l-65 -11 -3 -78 -3 -77 43 6 c24 3 59 9 78 13 l35 7 3 77
c2 58 0 77 -10 76 -7 -1 -42 -6 -78 -13z"/>
<path d="M6700 6521 c0 -79 0 -79 30 -90 l30 -10 0 78 c0 74 -1 78 -25 89 -14
7 -28 12 -30 12 -3 0 -5 -36 -5 -79z"/>
<path d="M8160 6581 c-21 -6 -26 -14 -28 -50 l-3 -43 33 7 c47 10 48 12 48 56
0 41 -4 43 -50 30z"/>
<path d="M9140 6551 c0 -45 1 -46 53 -55 l37 -7 0 40 c0 38 -2 41 -37 50 -53
15 -53 15 -53 -28z"/>
<path d="M5328 6548 l-58 -10 0 -78 0 -77 53 8 c103 16 97 10 97 94 0 84 7 80
-92 63z"/>
<path d="M6790 6485 c0 -73 1 -75 30 -90 l30 -16 0 79 c0 75 -1 79 -25 90 -14
7 -28 12 -30 12 -3 0 -5 -34 -5 -75z"/>
<path d="M2568 6539 c-25 -14 -27 -124 -2 -115 9 3 20 6 25 6 5 0 9 27 9 60 0
62 -3 66 -32 49z"/>
<path d="M2660 6492 l0 -59 50 -7 c28 -4 57 -9 65 -12 12 -5 15 5 15 54 l0 60
-37 6 c-21 4 -50 9 -65 12 l-28 6 0 -60z"/>
<path d="M8008 6543 c-13 -3 -18 -15 -18 -44 0 -42 4 -44 44 -29 21 8 26 16
26 45 0 36 -7 40 -52 28z"/>
<path d="M8573 6543 c-20 -4 -23 -11 -23 -48 l0 -43 40 10 c38 10 40 12 40 49
0 41 -3 42 -57 32z"/>
<path d="M8730 6512 c0 -33 4 -41 23 -46 42 -11 47 -7 47 34 0 25 -5 40 -12
40 -7 0 -23 3 -35 6 -21 6 -23 3 -23 -34z"/>
<path d="M9290 6516 c0 -38 2 -40 43 -50 26 -6 27 -5 27 33 0 32 -4 40 -22 45
-42 11 -48 7 -48 -28z"/>
<path d="M5098 6508 l-58 -10 0 -74 0 -75 53 6 c104 12 97 6 97 90 0 84 7 80
-92 63z"/>
<path d="M6880 6445 c0 -72 1 -76 26 -85 14 -6 27 -10 30 -10 2 0 4 33 4 73 0
69 -2 74 -25 85 -14 7 -28 12 -30 12 -3 0 -5 -34 -5 -75z"/>
<path d="M8440 6511 c-21 -6 -26 -14 -28 -50 -3 -39 -1 -42 17 -37 12 3 30 9
41 12 16 4 20 14 20 45 0 41 -4 43 -50 30z"/>
<path d="M8860 6481 c0 -36 3 -41 28 -47 15 -3 33 -7 40 -10 8 -2 12 9 12 36
0 43 -1 45 -47 55 -33 7 -33 7 -33 -34z"/>
<path d="M2487 6503 c-4 -3 -7 -31 -7 -60 0 -46 3 -54 18 -51 13 2 18 15 20
61 2 43 0 57 -11 57 -7 0 -17 -3 -20 -7z"/>
<path d="M3020 6432 l0 -59 38 -7 c73 -12 72 -12 72 54 l0 60 -39 0 c-22 0
-46 3 -55 6 -14 5 -16 -3 -16 -54z"/>
<path d="M9000 6450 c0 -44 1 -46 53 -55 l37 -7 0 41 c0 36 -3 41 -27 46 -66
14 -63 16 -63 -25z"/>
<path d="M2410 6420 c0 -33 2 -60 4 -60 27 0 36 16 36 66 0 47 -2 54 -20 54
-18 0 -20 -7 -20 -60z"/>
<path d="M4940 6405 c0 -43 4 -75 10 -75 6 0 10 32 10 75 0 43 -4 75 -10 75
-6 0 -10 -32 -10 -75z"/>
<path d="M6228 6468 l-48 -10 0 -79 c0 -58 3 -77 13 -74 6 2 45 9 85 15 l72
12 0 74 0 74 -37 -1 c-21 -1 -59 -6 -85 -11z"/>
<path d="M6430 6407 c0 -69 2 -74 25 -85 14 -7 28 -12 30 -12 3 0 5 34 5 75 0
63 -3 76 -19 85 -37 19 -41 12 -41 -63z"/>
<path d="M6973 6405 c0 -44 2 -61 4 -37 2 23 2 59 0 80 -2 20 -4 1 -4 -43z"/>
<path d="M6520 6371 c0 -74 1 -78 25 -89 14 -7 30 -12 35 -12 6 0 10 33 10 73
l0 73 -35 17 -35 17 0 -79z"/>
<path d="M8148 6443 c-13 -3 -18 -15 -18 -44 0 -35 3 -39 24 -39 45 0 56 10
56 51 0 41 -10 46 -62 32z"/>
<path d="M9140 6411 c0 -41 13 -51 68 -51 19 0 22 5 22 39 0 35 -3 39 -31 45
-55 11 -59 9 -59 -33z"/>
<path d="M6035 6435 c-5 -2 -27 -6 -47 -10 l-38 -6 0 -74 c0 -85 -5 -82 97
-64 l63 11 0 74 0 74 -32 -1 c-18 0 -37 -2 -43 -4z"/>
<path d="M8023 6409 c-30 -9 -33 -13 -33 -49 0 -22 2 -40 4 -40 1 0 17 5 35
11 28 10 31 15 31 50 0 21 -1 39 -2 38 -2 0 -18 -5 -35 -10z"/>
<path d="M8583 6409 c-30 -9 -33 -13 -33 -50 0 -41 0 -41 33 -34 46 10 47 12
47 56 0 21 -3 39 -7 38 -5 0 -23 -5 -40 -10z"/>
<path d="M8730 6380 c0 -42 2 -44 43 -54 26 -6 27 -5 27 34 0 22 -1 40 -3 40
-1 0 -17 4 -35 9 l-32 10 0 -39z"/>
<path d="M9290 6379 c0 -22 1 -39 3 -39 1 0 17 -4 35 -9 l33 -10 -3 42 c-3 38
-6 42 -35 48 -33 6 -33 6 -33 -32z"/>
<path d="M5845 6403 c-11 -2 -44 -9 -72 -14 l-53 -10 0 -75 0 -75 33 5 c17 3
53 8 80 11 l47 6 0 80 c0 43 -3 78 -7 78 -5 -1 -17 -3 -28 -6z"/>
<path d="M6610 6331 c0 -79 0 -79 30 -90 l30 -10 0 74 c0 73 -1 75 -30 90
l-30 16 0 -80z"/>
<path d="M8433 6373 c-19 -4 -23 -11 -23 -44 0 -41 8 -46 58 -33 18 5 22 13
22 45 0 41 -3 42 -57 32z"/>
<path d="M8860 6341 c0 -35 3 -39 31 -45 48 -9 49 -9 49 33 0 35 -3 39 -31 45
-48 9 -49 9 -49 -33z"/>
<path d="M2563 6363 c-13 -5 -19 -123 -7 -123 3 0 14 5 25 10 15 9 19 22 19
65 0 55 -5 61 -37 48z"/>
<path d="M2660 6317 c0 -62 -1 -61 83 -73 l47 -6 0 61 c0 60 -1 61 -27 61 -16
0 -45 3 -65 6 l-38 7 0 -56z"/>
<path d="M5620 6364 c-8 -1 -41 -6 -72 -9 l-58 -6 0 -80 c0 -72 2 -80 18 -75
9 2 37 7 62 11 83 12 80 8 80 91 0 41 -3 73 -7 73 -5 -1 -15 -3 -23 -5z"/>
<path d="M6700 6295 c0 -73 1 -75 30 -90 l30 -16 0 80 c0 79 0 79 -30 90 l-30
10 0 -74z"/>
<path d="M9000 6312 c0 -39 2 -42 38 -51 52 -15 52 -15 52 28 0 45 -1 47 -53
56 l-37 7 0 -40z"/>
<path d="M2493 6333 c-9 -3 -13 -26 -13 -64 0 -57 1 -59 20 -49 16 9 20 21 20
65 0 54 -3 58 -27 48z"/>
<path d="M5323 6318 l-53 -10 0 -75 0 -76 53 7 c102 14 97 9 97 92 0 84 5 81
-97 62z"/>
<path d="M6790 6255 c0 -73 1 -75 30 -90 l30 -16 0 81 c0 77 -1 81 -26 90 -14
6 -27 10 -30 10 -2 0 -4 -34 -4 -75z"/>
<path d="M3020 6259 l0 -57 53 -9 52 -8 3 53 c2 30 2 56 0 57 -2 2 -27 8 -55
13 l-53 9 0 -58z"/>
<path d="M8163 6308 c-30 -10 -33 -15 -33 -50 0 -35 2 -39 20 -34 11 3 29 9
40 12 16 4 20 14 20 45 0 21 -3 39 -7 38 -5 -1 -23 -6 -40 -11z"/>
<path d="M9140 6281 c0 -38 2 -41 38 -50 52 -15 52 -15 52 28 0 34 -3 40 -27
45 -16 4 -36 9 -45 12 -15 4 -18 -1 -18 -35z"/>
<path d="M2423 6303 c-8 -3 -13 -25 -13 -60 0 -46 3 -54 18 -51 13 2 18 15 20
61 3 56 0 61 -25 50z"/>
<path d="M5093 6278 l-53 -10 0 -75 0 -75 48 6 c110 15 102 8 102 92 0 84 5
81 -97 62z"/>
<path d="M6880 6215 c0 -72 1 -76 26 -85 14 -6 27 -10 30 -10 2 0 4 33 4 73 0
69 -2 74 -25 85 -14 7 -28 12 -30 12 -3 0 -5 -34 -5 -75z"/>
<path d="M8020 6271 c-20 -5 -26 -14 -28 -44 -3 -39 2 -42 46 -31 18 5 22 13
22 45 0 22 -3 39 -7 38 -5 -1 -19 -4 -33 -8z"/>
<path d="M8580 6271 c-21 -6 -26 -14 -28 -48 l-3 -41 40 10 c39 10 41 12 41
49 0 41 -4 43 -50 30z"/>
<path d="M8730 6241 c0 -37 3 -41 33 -49 31 -8 32 -8 35 26 4 40 -2 48 -40 57
-27 7 -28 6 -28 -34z"/>
<path d="M9290 6242 c0 -33 4 -41 23 -46 42 -11 47 -7 47 34 0 25 -5 40 -12
40 -7 0 -23 3 -35 6 -21 6 -23 3 -23 -34z"/>
<path d="M4940 6174 c0 -47 4 -73 10 -69 6 3 10 37 10 76 0 39 -4 69 -10 69
-6 0 -10 -32 -10 -76z"/>
<path d="M6260 6243 c-82 -8 -80 -6 -80 -88 0 -85 -7 -81 100 -63 l70 12 0 73
0 73 -27 -2 c-16 0 -44 -3 -63 -5z"/>
<path d="M6430 6178 c0 -70 1 -75 25 -86 14 -7 28 -12 30 -12 3 0 5 36 5 80 0
62 -3 80 -14 80 -8 0 -21 3 -30 6 -14 5 -16 -5 -16 -68z"/>
<path d="M6973 6175 c0 -44 2 -61 4 -37 2 23 2 59 0 80 -2 20 -4 1 -4 -43z"/>
<path d="M8450 6240 c-33 -5 -35 -7 -38 -48 l-3 -44 33 7 c44 9 50 16 46 56
-3 33 -4 34 -38 29z"/>
<path d="M8860 6211 c0 -44 1 -46 48 -56 l32 -7 0 42 c0 41 -2 43 -52 54 -27
6 -28 5 -28 -33z"/>
<path d="M6520 6142 c0 -75 1 -79 25 -90 43 -20 46 -16 43 65 -3 76 -3 77 -35
90 l-33 13 0 -78z"/>
<path d="M9000 6175 c0 -45 12 -55 68 -55 19 0 22 5 22 38 0 38 -1 39 -45 49
l-45 10 0 -42z"/>
<path d="M2568 6193 c-15 -4 -18 -16 -18 -64 0 -63 1 -65 31 -49 15 9 19 22
19 65 0 30 -3 54 -7 54 -5 -1 -16 -3 -25 -6z"/>
<path d="M2662 6144 l3 -58 63 -11 62 -12 0 58 c0 64 7 58 -93 75 l-38 6 3
-58z"/>
<path d="M5790 6166 l-65 -11 -3 -79 -3 -79 29 6 c16 3 52 9 81 13 l51 7 0 78
c0 57 -3 79 -12 78 -7 -1 -42 -7 -78 -13z"/>
<path d="M6610 6100 c0 -78 0 -78 30 -89 l30 -10 0 79 c0 78 0 78 -30 89 l-30
10 0 -79z"/>
<path d="M8158 6168 c-24 -8 -28 -15 -28 -48 l0 -38 40 10 c38 10 40 12 40 49
0 42 -6 45 -52 27z"/>
<path d="M9140 6140 c0 -22 3 -40 8 -40 4 0 24 -4 45 -9 l37 -9 0 39 c0 36 -2
39 -37 48 -53 15 -53 15 -53 -29z"/>
<path d="M2498 6159 c-14 -8 -18 -23 -18 -64 0 -30 3 -55 8 -55 25 1 33 20 30
73 -3 50 -5 55 -20 46z"/>
<path d="M2428 6129 c-14 -8 -18 -23 -18 -64 0 -30 3 -55 8 -55 25 1 33 20 30
73 -3 50 -5 55 -20 46z"/>
<path d="M3020 6080 c0 -50 3 -60 18 -60 9 0 34 -3 55 -6 l37 -7 0 56 c0 60 1
59 -72 72 l-38 6 0 -61z"/>
<path d="M5558 6127 l-68 -9 0 -76 0 -75 57 7 c108 13 103 8 103 92 0 53 -4
74 -12 73 -7 -1 -43 -6 -80 -12z"/>
<path d="M6700 6069 c0 -57 4 -75 18 -85 35 -27 42 -17 42 60 0 61 -3 75 -17
80 -10 3 -24 9 -30 12 -10 4 -13 -12 -13 -67z"/>
<path d="M8013 6133 c-19 -4 -23 -11 -23 -45 0 -37 2 -40 23 -34 12 3 28 6 35
6 7 0 12 15 12 40 0 41 -1 42 -47 33z"/>
<path d="M8573 6133 c-19 -4 -23 -11 -23 -45 0 -40 0 -40 31 -34 17 3 35 6 40
6 5 0 9 18 9 40 0 42 -3 44 -57 33z"/>
<path d="M8730 6101 c0 -32 4 -40 23 -45 42 -11 47 -7 47 33 0 32 -4 40 -22
45 -43 11 -48 7 -48 -33z"/>
<path d="M9290 6100 c0 -33 3 -40 19 -40 11 0 26 -3 35 -6 13 -5 16 1 16 34 0
33 -4 41 -22 46 -43 11 -48 7 -48 -34z"/>
<path d="M5365 6099 c-103 -19 -95 -10 -95 -94 0 -51 4 -75 12 -75 6 0 40 5
75 11 l63 11 0 79 c0 43 -1 78 -2 78 -2 -1 -25 -5 -53 -10z"/>
<path d="M8433 6103 c-20 -4 -23 -11 -23 -49 0 -38 3 -45 18 -40 64 17 62 16
62 57 0 41 -3 42 -57 32z"/>
<path d="M6790 6027 c0 -69 2 -74 25 -85 14 -7 28 -12 30 -12 3 0 5 34 5 75 0
63 -3 76 -19 85 -37 19 -41 12 -41 -63z"/>
<path d="M9000 6041 c0 -38 2 -41 38 -50 52 -15 52 -15 52 29 0 35 -3 40 -27
46 -16 3 -36 8 -45 11 -15 4 -18 -2 -18 -36z"/>
<path d="M5135 6059 c-103 -19 -95 -10 -95 -95 l0 -76 33 6 c17 3 51 8 75 12
l42 7 0 78 c0 44 -1 78 -2 78 -2 -1 -25 -5 -53 -10z"/>
<path d="M6880 5987 c0 -69 2 -74 25 -85 14 -7 28 -12 30 -12 3 0 5 34 5 75 0
63 -3 76 -19 85 -37 19 -41 12 -41 -63z"/>
<path d="M2573 6017 c-20 -9 -23 -18 -23 -68 0 -53 2 -57 21 -52 27 7 31 19
27 80 -3 48 -4 50 -25 40z"/>
<path d="M4940 5955 c0 -43 4 -75 10 -75 6 0 10 32 10 75 0 43 -4 75 -10 75
-6 0 -10 -32 -10 -75z"/>
<path d="M6258 6013 l-78 -15 0 -74 c0 -53 4 -74 13 -73 6 0 44 6 82 12 l70
12 3 78 c2 42 -1 77 -5 76 -4 -1 -43 -8 -85 -16z"/>
<path d="M6430 5952 c0 -77 0 -78 30 -89 l30 -11 0 74 c0 72 -1 74 -30 89
l-30 16 0 -79z"/>
<path d="M6973 5950 c0 -41 2 -58 4 -37 2 20 2 54 0 75 -2 20 -4 3 -4 -38z"/>
<path d="M8023 6003 c-32 -4 -33 -6 -33 -49 0 -24 2 -44 4 -44 1 0 17 5 35 11
28 10 31 15 31 50 0 21 -1 38 -2 37 -2 0 -18 -3 -35 -5z"/>
<path d="M8588 6002 c-38 -3 -38 -3 -38 -48 l0 -46 33 7 c43 9 49 17 45 56 -3
33 -4 34 -40 31z"/>
<path d="M8730 5968 c0 -32 4 -40 26 -48 40 -16 44 -13 44 34 0 43 -1 44 -35
48 -35 4 -35 4 -35 -34z"/>
<path d="M9290 5968 c0 -21 1 -38 3 -38 1 0 17 -4 35 -9 l32 -10 0 44 c0 42
-1 43 -35 47 -35 4 -35 4 -35 -34z"/>
<path d="M2487 5983 c-4 -3 -7 -31 -7 -60 0 -46 3 -54 18 -51 13 2 18 15 20
61 2 43 0 57 -11 57 -7 0 -17 -3 -20 -7z"/>
<path d="M6013 5977 l-63 -10 0 -78 c0 -57 4 -79 13 -78 6 0 41 6 77 13 l65
12 3 77 c3 87 12 81 -95 64z"/>
<path d="M6520 5911 c0 -66 3 -79 18 -84 9 -2 25 -8 35 -12 15 -6 17 0 17 69
0 74 -1 76 -30 91 -16 8 -31 15 -35 15 -3 0 -5 -35 -5 -79z"/>
<path d="M8475 5974 c-5 -1 -22 -5 -37 -8 -25 -6 -28 -11 -28 -47 l0 -42 36 6
c20 3 38 8 41 11 9 8 -2 83 -12 80z"/>
<path d="M8860 5937 c0 -38 3 -46 23 -51 49 -13 57 -8 57 33 0 41 2 40 -62 57
-15 5 -18 -2 -18 -39z"/>
<path d="M3020 5912 l0 -59 38 -7 c72 -12 72 -11 72 49 l0 54 -37 6 c-21 4
-46 9 -55 12 -16 4 -18 -3 -18 -55z"/>
<path d="M2417 5953 c-7 -7 -10 -113 -3 -113 2 0 11 3 20 6 21 8 23 114 3 114
-8 0 -17 -3 -20 -7z"/>
<path d="M6610 5872 c0 -77 0 -78 30 -89 l30 -11 0 77 c0 74 -1 78 -25 89 -14
7 -28 12 -30 12 -3 0 -5 -35 -5 -78z"/>
<path d="M9000 5903 c0 -39 1 -40 45 -50 l45 -10 0 38 c0 43 -2 45 -53 54
l-37 7 0 -39z"/>
<path d="M5548 5898 l-58 -10 0 -74 c0 -45 4 -74 11 -74 5 0 41 5 80 11 l69
12 0 73 c0 84 6 80 -102 62z"/>
<path d="M6700 5837 c0 -69 2 -74 25 -85 14 -7 28 -12 30 -12 3 0 5 33 5 73 0
69 -2 74 -25 85 -14 7 -28 12 -30 12 -3 0 -5 -33 -5 -73z"/>
<path d="M8168 5897 c-36 -9 -38 -11 -38 -49 0 -39 0 -40 33 -33 43 9 49 17
45 57 -3 34 -3 34 -40 25z"/>
<path d="M9140 5871 c0 -38 2 -41 38 -50 52 -15 52 -15 52 28 0 34 -3 40 -27
45 -16 4 -36 9 -45 12 -15 4 -18 -1 -18 -35z"/>
<path d="M5340 5866 l-65 -11 -3 -79 c-3 -77 -3 -78 20 -73 13 3 47 9 76 13
l52 7 0 78 c0 44 -3 78 -7 78 -5 -1 -37 -7 -73 -13z"/>
<path d="M6790 5801 c0 -79 0 -79 30 -90 l30 -10 0 74 c0 73 -1 75 -30 90
l-30 16 0 -80z"/>
<path d="M8588 5868 c-37 -10 -38 -11 -38 -55 0 -40 2 -44 20 -39 11 3 29 9
40 12 16 4 20 14 20 50 0 24 -1 44 -2 43 -2 -1 -20 -6 -40 -11z"/>
<path d="M9290 5835 c0 -36 4 -44 23 -49 42 -11 47 -7 47 34 0 22 -1 40 -3 40
-1 0 -17 4 -35 9 l-32 10 0 -44z"/>
<path d="M8008 5863 c-14 -3 -18 -15 -18 -48 l0 -44 32 10 c18 5 34 9 35 9 2
0 3 18 3 40 0 41 -6 45 -52 33z"/>
<path d="M8730 5832 c0 -38 3 -42 33 -50 32 -8 32 -8 35 31 4 46 4 45 -36 53
-32 6 -32 6 -32 -34z"/>
<path d="M2563 5843 c-13 -5 -19 -123 -7 -123 3 0 14 5 25 10 15 9 19 22 19
65 0 55 -5 61 -37 48z"/>
<path d="M2660 5797 c0 -62 -1 -61 83 -73 l47 -6 0 55 c0 62 1 61 -82 73 l-48
6 0 -55z"/>
<path d="M5105 5826 l-60 -12 -3 -76 -3 -77 38 6 c21 3 54 8 73 12 l35 7 3 77
c2 58 0 77 -10 76 -7 -1 -40 -7 -73 -13z"/>
<path d="M8440 5831 c-21 -6 -26 -14 -28 -50 -3 -39 -1 -42 17 -37 12 3 30 9
41 12 16 4 20 14 20 45 0 41 -4 43 -50 30z"/>
<path d="M8860 5802 c0 -38 2 -40 40 -50 l40 -10 0 38 c0 43 -1 45 -47 55 -33
7 -33 6 -33 -33z"/>
<path d="M2498 5809 c-14 -8 -18 -23 -18 -64 0 -30 3 -55 8 -55 25 1 33 20 30
73 -3 50 -5 55 -20 46z"/>
<path d="M9000 5769 c0 -43 2 -45 53 -54 l37 -7 0 39 c0 39 -1 40 -45 50 l-45
10 0 -38z"/>
<path d="M4940 5719 c0 -51 4 -78 10 -74 6 3 10 40 10 81 0 43 -4 74 -10 74
-6 0 -10 -34 -10 -81z"/>
<path d="M6275 5789 c-103 -19 -95 -10 -95 -95 0 -74 1 -76 23 -70 12 3 50 9
85 13 l62 6 0 78 c0 57 -3 79 -12 78 -7 -1 -35 -5 -63 -10z"/>
<path d="M6430 5722 c0 -77 0 -78 30 -89 l30 -11 0 78 c0 78 0 78 -30 89 l-30
10 0 -77z"/>
<path d="M6973 5720 c0 -47 2 -66 4 -42 2 23 2 61 0 85 -2 23 -4 4 -4 -43z"/>
<path d="M2428 5779 c-14 -8 -18 -23 -18 -64 0 -30 3 -55 8 -55 25 1 33 20 30
73 -3 50 -5 55 -20 46z"/>
<path d="M3020 5736 c0 -30 3 -57 8 -59 4 -3 28 -8 55 -11 l47 -7 0 55 c0 30
-3 57 -7 59 -5 3 -29 8 -55 11 l-48 7 0 -55z"/>
<path d="M8158 5763 c-26 -4 -28 -8 -28 -50 0 -37 3 -44 16 -39 9 3 27 9 40
12 20 5 24 12 24 45 0 25 -4 38 -12 38 -7 -1 -25 -4 -40 -6z"/>
<path d="M9140 5732 c0 -35 3 -41 28 -46 15 -4 35 -9 45 -12 14 -5 17 2 17 40
0 41 -2 46 -22 46 -13 0 -33 3 -45 6 -21 6 -23 3 -23 -34z"/>
<path d="M6522 5683 c3 -76 3 -77 36 -90 l32 -13 0 79 0 79 -31 11 c-18 6 -34
11 -36 11 -2 0 -3 -35 -1 -77z"/>
<path d="M8023 5728 c-30 -8 -33 -12 -33 -49 0 -41 0 -41 33 -34 41 9 39 6 35
52 -3 39 -3 39 -35 31z"/>
<path d="M8583 5729 c-30 -9 -33 -13 -33 -51 0 -40 0 -40 31 -34 17 3 35 6 40
6 5 0 9 20 9 45 0 25 -3 45 -7 44 -5 0 -23 -5 -40 -10z"/>
<path d="M8730 5696 c0 -37 4 -45 23 -50 42 -11 47 -7 47 33 0 35 -3 40 -31
50 -18 6 -34 11 -35 11 -2 0 -4 -20 -4 -44z"/>
<path d="M9290 5695 c0 -29 4 -45 13 -45 6 0 22 -3 35 -6 20 -6 22 -3 22 34 0
44 -1 46 -42 56 -27 6 -28 5 -28 -39z"/>
<path d="M6610 5645 c0 -63 3 -76 19 -85 37 -19 41 -12 41 65 0 72 -1 76 -26
85 -14 6 -27 10 -30 10 -2 0 -4 -34 -4 -75z"/>
<path d="M8433 5693 c-19 -4 -23 -11 -23 -45 0 -40 0 -40 31 -34 17 3 35 6 40
6 5 0 9 18 9 40 0 42 -3 44 -57 33z"/>
<path d="M8860 5665 c0 -29 5 -37 26 -45 45 -18 54 -13 54 29 0 35 -3 39 -31
45 -48 9 -49 9 -49 -29z"/>
<path d="M2573 5668 c-20 -10 -23 -19 -23 -69 l0 -59 25 12 c23 10 25 17 25
70 0 32 -1 58 -2 57 -2 0 -13 -5 -25 -11z"/>
<path d="M2660 5619 l0 -57 38 -6 c20 -4 49 -9 65 -12 l27 -6 0 60 0 59 -65 9
-65 10 0 -57z"/>
<path d="M5543 5668 l-53 -10 0 -74 0 -75 48 6 c26 3 62 8 80 11 l32 5 0 74 0
75 -27 -1 c-16 -1 -52 -6 -80 -11z"/>
<path d="M6700 5606 c0 -73 0 -74 30 -85 l30 -10 0 75 c0 71 -1 75 -26 84 -14
6 -27 10 -30 10 -2 0 -4 -33 -4 -74z"/>
<path d="M9000 5631 c0 -38 2 -41 38 -50 52 -15 52 -15 52 28 0 34 -3 40 -27
45 -16 4 -36 9 -45 12 -15 4 -18 -1 -18 -35z"/>
<path d="M5400 5643 c-8 -1 -41 -5 -72 -8 l-58 -6 0 -80 c0 -72 2 -80 18 -75
9 3 38 8 63 11 68 10 70 13 67 91 -2 55 -6 69 -18 67z"/>
<path d="M2487 5633 c-4 -3 -7 -31 -7 -60 0 -46 3 -54 18 -51 13 2 18 15 20
61 2 43 0 57 -11 57 -7 0 -17 -3 -20 -7z"/>
<path d="M6790 5567 c0 -72 0 -73 30 -84 l30 -11 0 78 c0 62 -3 79 -16 84 -40
15 -44 8 -44 -67z"/>
<path d="M8163 5628 c-30 -10 -33 -15 -33 -51 0 -39 0 -39 31 -33 17 3 35 6
40 6 5 0 9 20 9 45 0 25 -3 45 -7 44 -5 -1 -23 -6 -40 -11z"/>
<path d="M9140 5597 c0 -42 2 -45 31 -51 55 -11 59 -9 59 33 0 34 -3 40 -27
45 -16 4 -36 9 -45 12 -15 5 -18 -1 -18 -39z"/>
<path d="M2428 5609 c-14 -8 -18 -23 -18 -64 0 -30 3 -55 8 -55 25 1 33 20 30
73 -3 50 -5 55 -20 46z"/>
<path d="M3020 5560 c0 -50 3 -60 18 -60 9 0 34 -3 55 -6 l37 -7 0 56 c0 60 1
59 -72 72 l-38 6 0 -61z"/>
<path d="M5098 5598 l-58 -10 0 -78 0 -77 53 9 c106 18 97 9 97 93 0 84 7 80
-92 63z"/>
<path d="M6880 5532 c0 -77 0 -78 30 -89 l30 -11 0 78 c0 78 0 78 -30 89 l-30
10 0 -77z"/>
<path d="M8020 5591 c-20 -5 -26 -14 -28 -44 -3 -39 2 -42 46 -31 18 5 22 13
22 45 0 22 -3 39 -7 38 -5 -1 -19 -4 -33 -8z"/>
<path d="M8580 5591 c-21 -6 -26 -14 -28 -48 l-3 -41 40 10 c39 10 41 12 41
49 0 41 -4 43 -50 30z"/>
<path d="M8730 5563 c0 -37 3 -40 35 -50 l35 -11 0 44 c0 28 -4 44 -12 44 -7
0 -23 3 -35 6 -21 6 -23 3 -23 -33z"/>
<path d="M9290 5561 c0 -26 5 -41 13 -41 6 0 22 -3 35 -6 20 -6 22 -3 22 35 0
26 -5 41 -12 41 -7 0 -23 3 -35 6 -21 6 -23 3 -23 -35z"/>
<path d="M6245 5556 l-60 -11 -3 -76 -3 -75 73 8 c40 5 79 10 86 13 8 3 12 28
12 80 0 86 6 82 -105 61z"/>
<path d="M6430 5490 c0 -44 3 -80 8 -80 4 0 17 -3 30 -6 21 -6 22 -4 22 68 0
70 -1 75 -25 86 -14 7 -28 12 -30 12 -3 0 -5 -36 -5 -80z"/>
<path d="M6973 5495 c0 -44 2 -61 4 -37 2 23 2 59 0 80 -2 20 -4 1 -4 -43z"/>
<path d="M8448 5557 c-36 -9 -38 -11 -38 -49 0 -39 0 -40 33 -33 43 9 49 17
45 57 -3 34 -3 34 -40 25z"/>
<path d="M8860 5532 c0 -36 3 -41 31 -51 47 -16 49 -15 49 28 0 33 -4 41 -22
46 -61 18 -58 19 -58 -23z"/>
<path d="M9000 5495 c0 -40 2 -43 31 -49 55 -11 59 -9 59 32 0 38 -1 39 -45
49 l-45 10 0 -42z"/>
<path d="M6017 5520 c-32 -4 -60 -10 -63 -12 -3 -3 -4 -39 -2 -79 l3 -74 78
14 77 13 0 74 c0 83 9 77 -93 64z"/>
<path d="M6520 5455 c0 -72 1 -76 26 -85 42 -16 44 -13 44 64 l0 74 -31 11
c-18 6 -34 11 -35 11 -2 0 -4 -34 -4 -75z"/>
<path d="M2573 5497 c-20 -9 -23 -18 -23 -68 0 -53 2 -57 21 -52 27 7 31 19
27 80 -3 48 -4 50 -25 40z"/>
<path d="M2660 5447 c0 -61 -7 -56 93 -73 l37 -6 0 55 c0 31 -3 58 -7 60 -5 3
-34 8 -65 12 l-58 7 0 -55z"/>
<path d="M5830 5489 c-25 -4 -60 -11 -77 -14 l-33 -6 0 -74 c0 -85 -5 -82 97
-64 l63 11 0 79 c0 43 -1 79 -2 78 -2 -1 -23 -5 -48 -10z"/>
<path d="M6610 5422 c0 -75 1 -79 25 -90 14 -7 28 -12 30 -12 3 0 5 34 5 75 0
73 -1 75 -30 90 l-30 16 0 -79z"/>
<path d="M8160 5491 c-21 -6 -26 -14 -28 -50 l-3 -43 33 7 c47 10 48 12 48 56
0 41 -4 43 -50 30z"/>
<path d="M9140 5461 c0 -45 1 -46 53 -55 l37 -7 0 40 c0 38 -2 41 -37 50 -53
15 -53 15 -53 -28z"/>
<path d="M2498 5463 c-15 -4 -18 -16 -18 -63 0 -53 2 -58 20 -53 17 5 20 14
20 64 0 33 -1 58 -2 58 -2 -1 -11 -3 -20 -6z"/>
<path d="M5615 5453 c-11 -2 -44 -9 -72 -14 l-53 -10 0 -75 c0 -45 4 -74 11
-74 5 0 41 5 80 11 l69 12 0 78 c0 44 -3 78 -7 78 -5 -1 -17 -3 -28 -6z"/>
<path d="M6700 5382 c0 -75 1 -79 25 -90 14 -7 28 -12 30 -12 3 0 5 34 5 75 0
73 -1 75 -30 90 l-30 16 0 -79z"/>
<path d="M8013 5453 c-19 -4 -23 -11 -23 -45 0 -37 2 -40 23 -34 12 3 28 6 35
6 7 0 12 15 12 40 0 41 -1 42 -47 33z"/>
<path d="M8568 5453 c-14 -3 -18 -15 -18 -45 0 -40 0 -40 31 -34 17 3 35 6 40
6 5 0 9 18 9 40 0 42 -10 47 -62 33z"/>
<path d="M8730 5421 c0 -32 4 -40 23 -45 42 -11 47 -7 47 33 0 32 -4 40 -22
45 -43 11 -48 7 -48 -33z"/>
<path d="M9290 5426 c0 -38 2 -40 43 -50 26 -6 27 -5 27 33 0 32 -4 40 -22 45
-42 11 -48 7 -48 -28z"/>
<path d="M2428 5433 c-15 -4 -18 -16 -18 -63 0 -53 2 -58 20 -53 17 5 20 14
20 64 0 33 -1 58 -2 58 -2 -1 -11 -3 -20 -6z"/>
<path d="M3020 5387 c0 -60 -1 -59 73 -72 l37 -6 0 61 c0 50 -3 60 -17 60 -10
0 -35 3 -55 6 l-38 7 0 -56z"/>
<path d="M8445 5421 c-27 -5 -30 -10 -33 -49 -3 -40 -1 -43 17 -38 12 3 30 9
41 12 16 4 20 14 20 45 0 21 -3 38 -7 38 -5 -1 -21 -4 -38 -8z"/>
<path d="M8860 5391 c0 -41 -2 -40 63 -57 14 -5 17 1 17 35 0 44 -1 46 -47 56
-33 7 -33 6 -33 -34z"/>
<path d="M5338 5407 l-68 -10 0 -78 0 -77 38 8 c20 4 54 11 75 14 l37 7 0 74
c0 41 -3 74 -7 73 -5 0 -38 -6 -75 -11z"/>
<path d="M6790 5344 c0 -72 1 -74 30 -89 l30 -16 0 79 c0 77 0 78 -30 89 l-30
11 0 -74z"/>
<path d="M9000 5355 c0 -32 4 -45 14 -45 7 0 28 -3 45 -6 31 -6 31 -6 31 34 0
39 -2 42 -37 51 -54 15 -53 16 -53 -34z"/>
<path d="M5093 5368 l-53 -10 0 -75 0 -76 53 7 c102 14 97 9 97 92 0 84 5 81
-97 62z"/>
<path d="M6880 5305 c0 -72 1 -76 26 -85 14 -6 27 -10 30 -10 2 0 4 33 4 73 0
69 -2 74 -25 85 -14 7 -28 12 -30 12 -3 0 -5 -34 -5 -75z"/>
<path d="M8153 5353 c-19 -4 -23 -11 -23 -45 0 -40 0 -40 31 -34 17 3 35 6 40
6 5 0 9 18 9 40 0 42 -3 44 -57 33z"/>
<path d="M9140 5320 c0 -27 4 -40 14 -40 7 0 28 -3 45 -6 31 -6 31 -6 31 34 0
36 -2 40 -31 46 -56 11 -59 9 -59 -34z"/>
<path d="M4940 5265 c0 -43 4 -75 10 -75 6 0 10 32 10 75 0 43 -4 75 -10 75
-6 0 -10 -32 -10 -75z"/>
<path d="M6238 5328 l-58 -10 0 -80 c0 -78 1 -80 23 -75 12 3 40 8 62 12 92
14 85 7 85 90 l0 75 -27 -1 c-16 -1 -54 -6 -85 -11z"/>
<path d="M6430 5265 c0 -73 1 -75 30 -90 l30 -16 0 81 c0 77 -1 81 -26 90 -14
6 -27 10 -30 10 -2 0 -4 -34 -4 -75z"/>
<path d="M6973 5265 c0 -44 2 -61 4 -37 2 23 2 59 0 80 -2 20 -4 1 -4 -43z"/>
<path d="M2573 5319 c-20 -7 -23 -15 -23 -64 0 -55 8 -65 38 -46 9 5 12 26 10
63 -3 53 -4 55 -25 47z"/>
<path d="M2660 5272 l0 -59 43 -7 c23 -4 52 -9 65 -13 21 -5 22 -2 22 55 l0
60 -47 6 c-27 4 -56 9 -65 12 -16 5 -18 -2 -18 -54z"/>
<path d="M8023 5319 c-30 -9 -33 -13 -33 -49 0 -22 2 -40 4 -40 1 0 17 5 35
11 28 10 31 15 31 50 0 21 -1 39 -2 38 -2 0 -18 -5 -35 -10z"/>
<path d="M8583 5319 c-30 -9 -33 -13 -33 -50 0 -41 0 -41 33 -34 46 10 47 12
47 56 0 21 -3 39 -7 38 -5 0 -23 -5 -40 -10z"/>
<path d="M8730 5290 c0 -42 2 -44 43 -54 26 -6 27 -5 27 34 0 22 -1 40 -3 40
-1 0 -17 4 -35 9 l-32 10 0 -39z"/>
<path d="M9290 5289 c0 -22 1 -39 3 -39 1 0 17 -4 35 -9 l33 -10 -3 42 c-3 38
-6 42 -35 48 -33 6 -33 6 -33 -32z"/>
<path d="M6003 5287 l-53 -10 0 -73 c0 -45 4 -74 11 -74 5 0 41 5 80 11 l69
12 0 73 0 74 -27 -1 c-16 -1 -52 -6 -80 -12z"/>
<path d="M6520 5227 c0 -69 2 -74 25 -85 14 -7 30 -12 35 -12 6 0 10 33 10 74
l0 74 -31 11 c-18 6 -34 11 -35 11 -2 0 -4 -33 -4 -73z"/>
<path d="M2493 5283 c-9 -3 -13 -26 -13 -64 0 -57 1 -59 20 -49 16 9 20 21 20
65 0 54 -3 58 -27 48z"/>
<path d="M8433 5283 c-19 -4 -23 -11 -23 -44 0 -41 8 -46 58 -33 18 5 22 13
22 45 0 41 -3 42 -57 32z"/>
<path d="M2428 5259 c-14 -8 -18 -23 -18 -64 0 -30 3 -55 8 -55 25 1 33 20 30
73 -3 50 -5 55 -20 46z"/>
<path d="M3020 5216 c0 -30 3 -57 8 -59 4 -3 28 -8 55 -11 l47 -7 0 55 c0 30
-3 57 -7 59 -5 3 -29 8 -55 11 l-48 7 0 -55z"/>
<path d="M5790 5256 l-65 -11 -3 -79 -3 -79 29 6 c16 3 52 9 81 13 l51 7 0 78
c0 57 -3 79 -12 78 -7 -1 -42 -7 -78 -13z"/>
<path d="M6610 5190 c0 -78 0 -78 30 -89 l30 -10 0 77 c0 77 0 78 -30 89 l-30
11 0 -78z"/>
<path d="M5560 5216 l-65 -11 -3 -78 -3 -78 43 6 c24 4 59 10 78 14 l35 7 3
77 c2 58 0 77 -10 76 -7 -1 -42 -7 -78 -13z"/>
<path d="M6700 5152 c0 -80 0 -80 30 -91 l30 -10 0 78 c0 66 -3 80 -17 85 -10
3 -24 9 -30 12 -10 4 -13 -14 -13 -74z"/>
<path d="M8163 5218 c-30 -10 -33 -15 -33 -49 0 -43 2 -44 49 -28 28 10 31 15
31 50 0 21 -3 39 -7 38 -5 -1 -23 -6 -40 -11z"/>
<path d="M9140 5191 c0 -38 2 -41 38 -50 52 -15 52 -15 52 28 0 34 -3 40 -27
45 -16 4 -36 9 -45 12 -15 4 -18 -1 -18 -35z"/>
<path d="M5333 5177 l-63 -10 0 -73 c0 -50 4 -74 12 -74 6 0 40 5 75 11 l63
11 0 74 c0 53 -4 74 -12 73 -7 -1 -41 -6 -75 -12z"/>
<path d="M6790 5116 c0 -68 2 -74 25 -84 14 -7 28 -12 30 -12 3 0 5 33 5 74 0
73 0 74 -30 85 l-30 10 0 -73z"/>
<path d="M8020 5181 c-20 -5 -26 -14 -28 -44 -3 -39 2 -42 46 -31 18 5 22 13
22 45 0 22 -3 39 -7 38 -5 -1 -19 -4 -33 -8z"/>
<path d="M8580 5181 c-21 -6 -26 -14 -28 -49 -2 -31 0 -41 10 -38 7 2 25 7 41
10 24 6 27 11 27 46 0 42 -4 44 -50 31z"/>
<path d="M8730 5151 c0 -37 3 -41 33 -49 31 -8 32 -8 35 26 4 40 -2 48 -40 57
-27 7 -28 6 -28 -34z"/>
<path d="M9290 5152 c0 -33 4 -41 23 -46 42 -11 47 -7 47 34 0 25 -5 40 -12
40 -7 0 -23 3 -35 6 -21 6 -23 3 -23 -34z"/>
<path d="M2573 5148 c-20 -10 -23 -19 -23 -69 l0 -59 25 12 c23 10 25 17 25
70 0 32 -1 58 -2 57 -2 0 -13 -5 -25 -11z"/>
<path d="M2660 5099 l0 -57 38 -6 c20 -4 49 -9 65 -12 l27 -6 0 60 0 59 -65 9
-65 10 0 -57z"/>
<path d="M5135 5149 c-103 -19 -95 -10 -95 -95 l0 -76 33 6 c17 3 51 8 75 12
l42 7 0 78 c0 44 -1 78 -2 78 -2 -1 -25 -5 -53 -10z"/>
<path d="M8440 5151 c-21 -6 -25 -14 -28 -50 -3 -41 -2 -43 20 -37 13 3 31 6
41 6 14 0 17 9 17 45 0 47 -3 49 -50 36z"/>
<path d="M8860 5121 c0 -44 1 -46 48 -56 32 -7 32 -7 32 34 0 44 -1 46 -47 56
-33 7 -33 7 -33 -34z"/>
<path d="M6880 5077 c0 -69 2 -74 25 -85 14 -7 28 -12 30 -12 3 0 5 34 5 75 0
72 -1 76 -26 85 -14 6 -27 10 -30 10 -2 0 -4 -33 -4 -73z"/>
<path d="M9000 5084 c0 -31 4 -44 14 -44 7 0 28 -3 45 -6 31 -6 31 -6 31 33 0
39 -1 40 -45 50 l-45 10 0 -43z"/>
<path d="M2493 5113 c-9 -3 -13 -26 -13 -64 0 -57 1 -59 20 -49 16 9 20 21 20
65 0 54 -3 58 -27 48z"/>
<path d="M4947 5113 c-11 -11 -8 -153 3 -153 6 0 10 33 10 80 0 80 -1 86 -13
73z"/>
<path d="M6335 5114 c-5 -1 -43 -7 -82 -14 l-73 -12 0 -77 0 -78 82 14 c46 8
84 16 86 17 8 9 -4 152 -13 150z"/>
<path d="M6430 5040 c0 -77 1 -81 26 -90 14 -6 27 -10 30 -10 2 0 4 34 4 75 0
73 -1 75 -30 90 l-30 16 0 -81z"/>
<path d="M6973 5035 c0 -44 2 -61 4 -37 2 23 2 59 0 80 -2 20 -4 1 -4 -43z"/>
<path d="M2423 5083 c-9 -3 -13 -26 -13 -64 0 -57 1 -59 20 -49 16 9 20 21 20
65 0 54 -3 58 -27 48z"/>
<path d="M8158 5078 c-24 -8 -28 -15 -28 -48 l0 -38 40 10 c38 10 40 12 40 49
0 42 -6 45 -52 27z"/>
<path d="M9140 5051 c0 -34 3 -40 28 -45 15 -4 35 -9 45 -12 14 -4 17 1 17 35
0 38 -2 41 -37 50 -53 15 -53 15 -53 -28z"/>
<path d="M6520 5001 c0 -66 3 -79 18 -84 9 -2 25 -8 35 -12 15 -6 17 0 17 67
l0 74 -35 17 -35 17 0 -79z"/>
<path d="M6035 5065 c-5 -2 -27 -6 -47 -10 l-38 -6 0 -76 0 -75 29 5 c15 3 51
9 80 13 l51 7 0 73 0 74 -32 -1 c-18 0 -37 -2 -43 -4z"/>
<path d="M8013 5043 c-19 -4 -23 -11 -23 -45 0 -37 2 -40 23 -34 12 3 28 6 35
6 7 0 12 15 12 40 0 41 -1 42 -47 33z"/>
<path d="M8573 5043 c-19 -4 -23 -11 -23 -45 0 -40 0 -40 31 -34 17 3 35 6 40
6 5 0 9 18 9 40 0 42 -3 44 -57 33z"/>
<path d="M8730 5012 c0 -33 4 -41 23 -46 42 -11 47 -7 47 34 0 25 -5 40 -12
40 -7 0 -23 3 -35 6 -21 6 -23 3 -23 -34z"/>
<path d="M9290 5010 c0 -33 3 -40 19 -40 11 0 26 -3 35 -6 13 -5 16 1 16 34 0
33 -4 41 -22 46 -43 11 -48 7 -48 -34z"/>
<path d="M5783 5027 l-63 -10 0 -79 0 -79 33 6 c17 3 52 9 77 13 l45 7 3 78
c3 87 12 81 -95 64z"/>
<path d="M6610 4962 c0 -77 0 -78 30 -89 l30 -11 0 77 c0 74 -1 78 -25 89 -14
7 -28 12 -30 12 -3 0 -5 -35 -5 -78z"/>
<path d="M8433 5013 c-20 -4 -23 -11 -23 -49 0 -38 3 -45 18 -40 64 17 62 16
62 57 0 41 -3 42 -57 32z"/>
<path d="M8860 4981 c0 -41 -2 -40 63 -57 14 -5 17 2 17 39 0 38 -3 46 -22 51
-50 13 -58 8 -58 -33z"/>
<path d="M5548 4988 l-58 -10 0 -79 c0 -44 2 -79 5 -79 4 0 85 16 133 26 20 4
22 10 22 79 0 85 7 81 -102 63z"/>
<path d="M6700 4925 c0 -73 1 -75 30 -90 l30 -16 0 79 c0 75 -1 79 -25 90 -14
7 -28 12 -30 12 -3 0 -5 -34 -5 -75z"/>
<path d="M9000 4951 c0 -38 2 -41 38 -50 52 -15 52 -15 52 29 0 35 -3 40 -27
46 -16 3 -36 8 -45 11 -15 4 -18 -2 -18 -36z"/>
<path d="M2568 4969 c-25 -14 -27 -124 -2 -115 9 3 20 6 25 6 5 0 9 27 9 60 0
62 -3 66 -32 49z"/>
<path d="M2660 4922 l0 -59 50 -7 c28 -4 57 -9 65 -12 12 -5 15 5 15 54 l0 60
-37 6 c-21 4 -50 9 -65 12 l-28 6 0 -60z"/>
<path d="M5323 4948 l-53 -10 0 -73 0 -74 53 5 c103 10 97 5 97 89 0 85 5 82
-97 63z"/>
<path d="M6792 4883 c3 -74 4 -77 31 -84 l27 -7 0 72 c0 68 -2 74 -25 84 -14
7 -28 12 -31 12 -3 0 -4 -35 -2 -77z"/>
<path d="M8153 4943 c-19 -4 -23 -11 -23 -45 0 -40 0 -40 31 -34 17 3 35 6 40
6 5 0 9 18 9 40 0 42 -3 44 -57 33z"/>
<path d="M9140 4916 c0 -30 5 -38 26 -46 49 -19 64 -13 64 24 0 40 -2 42 -53
51 l-37 7 0 -36z"/>
<path d="M2487 4933 c-4 -3 -7 -31 -7 -60 0 -46 3 -54 18 -51 13 2 18 15 20
61 2 43 0 57 -11 57 -7 0 -17 -3 -20 -7z"/>
<path d="M2428 4913 c-15 -4 -18 -16 -18 -63 0 -53 2 -58 20 -53 17 5 20 14
20 64 0 33 -1 58 -2 58 -2 -1 -11 -3 -20 -6z"/>
<path d="M5080 4911 l-35 -6 -3 -79 c-3 -77 -3 -78 20 -73 13 3 47 9 76 13
l52 7 0 73 0 74 -37 -1 c-21 -1 -54 -4 -73 -8z"/>
<path d="M6880 4846 c0 -73 0 -74 30 -85 l30 -10 0 74 c0 63 -3 76 -19 85 -37
19 -41 12 -41 -64z"/>
<path d="M8018 4913 c-26 -4 -28 -8 -28 -49 0 -43 1 -44 28 -38 41 10 42 12
42 55 0 21 -3 38 -7 38 -5 -1 -20 -4 -35 -6z"/>
<path d="M8578 4913 c-26 -4 -28 -8 -28 -49 l0 -46 33 7 c46 10 47 12 47 56 0
25 -4 38 -12 38 -7 -1 -25 -4 -40 -6z"/>
<path d="M8730 4881 c0 -35 4 -43 26 -51 40 -16 44 -13 44 35 0 29 -4 45 -12
45 -7 0 -23 3 -35 6 -21 6 -23 3 -23 -35z"/>
<path d="M9290 4881 c0 -37 3 -41 33 -49 32 -8 32 -8 35 31 4 46 6 43 -35 52
-33 7 -33 7 -33 -34z"/>
<path d="M4940 4809 c0 -51 4 -78 10 -74 6 3 10 40 10 81 0 43 -4 74 -10 74
-6 0 -10 -34 -10 -81z"/>
<path d="M6275 4879 c-103 -19 -95 -10 -95 -94 0 -85 -7 -81 101 -64 l69 12 0
78 c0 57 -3 79 -12 78 -7 -1 -35 -5 -63 -10z"/>
<path d="M6430 4811 c0 -74 1 -78 25 -89 14 -7 28 -12 30 -12 3 0 5 33 5 74 0
74 -5 86 -42 99 -16 6 -18 -2 -18 -72z"/>
<path d="M6973 4810 c0 -47 2 -66 4 -42 2 23 2 61 0 85 -2 23 -4 4 -4 -43z"/>
<path d="M8475 4884 c-5 -1 -22 -5 -37 -8 -25 -6 -28 -11 -28 -47 l0 -40 38 7
c20 4 38 8 40 9 8 7 -4 81 -13 79z"/>
<path d="M8860 4846 c0 -37 3 -46 18 -46 9 0 27 -3 40 -6 20 -6 22 -3 22 34 0
42 2 41 -62 58 -15 5 -18 -2 -18 -40z"/>
<path d="M6045 4839 c-101 -17 -95 -10 -95 -94 0 -73 1 -75 23 -71 12 3 48 8
80 11 l57 6 0 80 c0 43 -3 78 -7 78 -5 -1 -30 -5 -58 -10z"/>
<path d="M6520 4770 l0 -79 33 -9 32 -8 3 64 c4 80 1 87 -37 100 l-31 11 0
-79z"/>
<path d="M9000 4812 c0 -40 1 -41 43 -49 l42 -9 3 34 c4 42 -2 48 -50 57 l-38
7 0 -40z"/>
<path d="M8168 4807 c-36 -9 -38 -11 -38 -49 0 -39 0 -40 33 -33 43 9 49 17
45 57 -3 34 -3 34 -40 25z"/>
<path d="M9140 4781 c0 -38 2 -41 38 -50 52 -15 52 -15 52 28 0 34 -3 40 -27
45 -16 4 -36 9 -45 12 -15 4 -18 -1 -18 -35z"/>
<path d="M5830 4804 c-14 -3 -44 -7 -67 -10 l-43 -5 0 -80 c0 -72 2 -80 18
-75 9 3 35 8 57 11 91 14 85 7 85 90 0 54 -3 75 -12 74 -7 -1 -24 -3 -38 -5z"/>
<path d="M6610 4734 c0 -62 3 -75 19 -84 38 -20 42 -13 39 67 -3 74 -4 77 -30
84 l-28 7 0 -74z"/>
<path d="M2557 4793 c-4 -3 -7 -31 -7 -60 0 -51 2 -54 23 -51 19 3 22 10 25
61 3 50 1 57 -16 57 -10 0 -22 -3 -25 -7z"/>
<path d="M2660 4745 c0 -60 -4 -57 88 -69 l42 -6 0 59 0 58 -37 7 c-21 3 -50
6 -65 6 -27 0 -28 -2 -28 -55z"/>
<path d="M8588 4778 c-37 -10 -38 -11 -38 -55 0 -40 2 -44 20 -39 11 3 29 9
40 12 16 4 20 14 20 50 0 24 -1 44 -2 43 -2 -1 -20 -6 -40 -11z"/>
<path d="M8730 4742 c0 -38 3 -42 33 -50 32 -8 32 -8 35 31 4 46 4 45 -36 53
-32 6 -32 6 -32 -34z"/>
<path d="M2493 4763 c-9 -3 -13 -26 -13 -64 0 -57 1 -59 20 -49 16 9 20 21 20
65 0 54 -3 58 -27 48z"/>
<path d="M5543 4758 l-53 -10 0 -75 0 -76 57 7 c108 13 103 8 103 92 l0 74
-27 -1 c-16 -1 -52 -6 -80 -11z"/>
<path d="M6700 4695 c0 -63 3 -76 19 -85 37 -19 41 -12 41 65 0 72 -1 76 -26
85 -14 6 -27 10 -30 10 -2 0 -4 -34 -4 -75z"/>
<path d="M3020 4689 l0 -57 53 -9 52 -8 3 53 c2 30 2 56 0 57 -2 2 -27 8 -55
13 l-53 9 0 -58z"/>
<path d="M8440 4741 c-21 -6 -26 -14 -28 -50 -3 -39 -1 -42 17 -37 12 3 30 9
41 12 16 4 20 14 20 45 0 41 -4 43 -50 30z"/>
<path d="M8860 4712 c0 -38 2 -40 40 -50 l40 -10 0 38 c0 43 -1 45 -47 55 -33
7 -33 6 -33 -33z"/>
<path d="M2423 4733 c-8 -3 -13 -25 -13 -60 0 -46 3 -54 18 -51 13 2 18 15 20
61 3 56 0 61 -25 50z"/>
<path d="M5380 4730 c-19 -4 -52 -11 -72 -14 l-38 -7 0 -74 c0 -51 4 -75 12
-75 6 0 40 5 75 11 l63 11 0 79 c0 43 -1 79 -2 78 -2 -1 -19 -5 -38 -9z"/>
<path d="M6790 4657 c0 -69 2 -74 25 -85 14 -7 28 -12 30 -12 3 0 5 34 5 75 0
63 -3 76 -19 85 -37 19 -41 12 -41 -63z"/>
<path d="M9000 4679 c0 -43 2 -45 53 -54 l37 -7 0 39 c0 39 -1 40 -45 50 l-45
10 0 -38z"/>
<path d="M5113 4686 l-73 -9 0 -77 0 -77 70 12 c39 7 73 14 76 17 3 3 4 37 2
74 l-3 69 -72 -9z"/>
<path d="M6880 4618 c0 -73 0 -74 30 -85 l30 -11 0 79 c0 62 -3 79 -14 79 -8
0 -21 3 -30 6 -14 5 -16 -4 -16 -68z"/>
<path d="M8148 4673 c-14 -3 -18 -15 -18 -50 0 -37 3 -44 16 -39 9 3 27 9 40
12 20 5 24 12 24 45 0 41 -10 46 -62 32z"/>
<path d="M9140 4641 c0 -34 3 -40 28 -45 15 -4 35 -9 45 -12 14 -5 17 1 17 39
0 42 -2 45 -31 51 -55 11 -59 9 -59 -33z"/>
<path d="M4940 4585 c0 -43 4 -75 10 -75 6 0 10 32 10 75 0 43 -4 75 -10 75
-6 0 -10 -32 -10 -75z"/>
<path d="M6250 4646 l-65 -11 -3 -77 c-2 -59 0 -78 10 -77 7 0 45 6 83 12 l70
12 3 78 c3 88 11 83 -98 63z"/>
<path d="M6430 4582 c0 -77 0 -78 30 -89 l30 -11 0 77 c0 74 -1 78 -25 89 -14
7 -28 12 -30 12 -3 0 -5 -35 -5 -78z"/>
<path d="M6973 4585 c0 -44 2 -61 4 -37 2 23 2 59 0 80 -2 20 -4 1 -4 -43z"/>
<path d="M8023 4639 c-30 -9 -33 -13 -33 -47 0 -37 0 -38 35 -34 34 4 35 5 35
48 0 24 -1 44 -2 43 -2 0 -18 -5 -35 -10z"/>
<path d="M8583 4639 c-30 -9 -33 -13 -33 -50 0 -33 3 -40 16 -35 9 3 27 6 40
6 22 0 24 4 24 45 0 25 -3 45 -7 44 -5 0 -23 -5 -40 -10z"/>
<path d="M8730 4605 c0 -38 3 -45 19 -45 11 0 26 -3 35 -6 13 -5 16 2 16 34 0
36 -3 41 -31 51 -18 6 -34 11 -35 11 -2 0 -4 -20 -4 -45z"/>
<path d="M9290 4606 c0 -43 1 -44 35 -48 34 -4 35 -3 35 33 0 41 -2 43 -42 53
-27 6 -28 5 -28 -38z"/>
<path d="M2568 4619 c-14 -8 -18 -23 -18 -64 0 -59 1 -60 31 -45 15 9 19 22
19 65 0 57 -3 61 -32 44z"/>
<path d="M2662 4574 l3 -58 63 -11 62 -12 0 58 c0 64 7 58 -93 75 l-38 6 3
-58z"/>
<path d="M6013 4607 l-63 -10 0 -79 0 -79 43 6 c23 4 58 10 77 14 l35 7 3 77
c3 87 12 81 -95 64z"/>
<path d="M6520 4541 c0 -66 3 -79 18 -84 9 -2 25 -8 35 -12 15 -6 17 0 17 69
0 74 -1 76 -30 91 -16 8 -31 15 -35 15 -3 0 -5 -35 -5 -79z"/>
<path d="M8433 4603 c-19 -4 -23 -11 -23 -45 0 -40 0 -40 31 -34 17 3 35 6 40
6 5 0 9 18 9 40 0 42 -3 44 -57 33z"/>
<path d="M8860 4575 c0 -29 5 -37 26 -45 45 -18 54 -13 54 29 0 35 -3 39 -31
45 -48 9 -49 9 -49 -29z"/>
<path d="M2498 4589 c-14 -8 -18 -23 -18 -64 0 -30 3 -55 8 -55 25 1 33 20 30
73 -3 50 -5 55 -20 46z"/>
<path d="M5783 4567 l-63 -10 0 -73 c0 -84 -5 -81 97 -63 l63 11 0 74 c0 84 9
78 -97 61z"/>
<path d="M6610 4507 c0 -69 2 -74 25 -85 14 -7 28 -12 30 -12 3 0 5 33 5 73 0
69 -2 74 -25 85 -14 7 -28 12 -30 12 -3 0 -5 -33 -5 -73z"/>
<path d="M9000 4541 c0 -38 2 -41 38 -50 52 -15 52 -15 52 28 0 34 -3 40 -27
45 -16 4 -36 9 -45 12 -15 4 -18 -1 -18 -35z"/>
<path d="M2428 4562 c-15 -3 -18 -14 -18 -63 0 -32 3 -59 8 -59 24 1 33 20 30
71 -3 46 -6 54 -20 51z"/>
<path d="M3020 4511 c0 -51 3 -61 18 -61 9 0 34 -3 55 -6 l37 -7 0 62 0 61
-32 0 c-18 0 -43 3 -55 6 -22 6 -23 4 -23 -55z"/>
<path d="M5615 4543 c-11 -2 -44 -9 -72 -14 l-53 -10 0 -75 c0 -45 4 -74 11
-74 5 0 41 5 80 11 l69 12 0 78 c0 44 -3 78 -7 78 -5 -1 -17 -3 -28 -6z"/>
<path d="M6700 4472 c0 -75 1 -79 25 -90 14 -7 28 -12 30 -12 3 0 5 34 5 75 0
73 -1 75 -30 90 l-30 16 0 -79z"/>
<path d="M8163 4538 c-30 -10 -33 -15 -33 -51 0 -39 0 -39 31 -33 17 3 35 6
40 6 5 0 9 20 9 45 0 25 -3 45 -7 44 -5 -1 -23 -6 -40 -11z"/>
<path d="M9140 4507 c0 -44 0 -44 45 -54 l45 -10 0 42 c0 38 -3 44 -27 49 -16
4 -36 9 -45 12 -15 5 -18 -1 -18 -39z"/>
<path d="M5340 4496 l-65 -11 -3 -78 -3 -79 28 6 c15 3 49 8 76 12 l47 6 0 79
c0 44 -3 78 -7 78 -5 -1 -37 -7 -73 -13z"/>
<path d="M6790 4431 c0 -79 0 -79 30 -90 l30 -10 0 74 c0 73 -1 75 -30 90
l-30 16 0 -80z"/>
<path d="M8020 4501 c-20 -5 -26 -14 -28 -44 -3 -39 2 -42 46 -31 18 5 22 13
22 45 0 22 -3 39 -7 38 -5 -1 -19 -4 -33 -8z"/>
<path d="M8580 4501 c-21 -6 -26 -14 -28 -48 l-3 -41 40 10 c39 10 41 12 41
49 0 41 -4 43 -50 30z"/>
<path d="M8730 4471 c0 -37 3 -41 33 -49 32 -8 32 -8 35 31 4 46 6 43 -35 52
-33 7 -33 7 -33 -34z"/>
<path d="M9290 4472 c0 -33 4 -41 23 -46 42 -11 47 -7 47 34 0 25 -5 40 -12
40 -7 0 -23 3 -35 6 -21 6 -23 3 -23 -34z"/>
<path d="M5105 4456 l-60 -12 -3 -73 -3 -74 53 7 c103 14 98 9 98 92 0 53 -4
74 -12 73 -7 -1 -40 -7 -73 -13z"/>
<path d="M6880 4395 c0 -72 1 -76 26 -85 14 -6 27 -10 30 -10 2 0 4 31 4 70 0
67 -1 70 -30 85 l-30 16 0 -76z"/>
<path d="M8860 4431 c0 -37 2 -39 40 -49 l40 -10 0 43 c0 40 -2 43 -31 49 -48
9 -49 9 -49 -33z"/>
<path d="M2563 4443 c-9 -3 -13 -26 -13 -64 0 -56 1 -58 23 -50 19 7 22 17 25
65 3 56 -2 63 -35 49z"/>
<path d="M2660 4397 c0 -61 -7 -56 93 -73 l37 -6 0 61 c0 53 -2 61 -19 61 -10
0 -39 3 -65 6 l-46 7 0 -56z"/>
<path d="M9000 4401 c0 -34 3 -40 28 -45 15 -4 35 -9 45 -12 14 -5 17 1 17 39
0 42 -2 45 -31 51 -55 11 -59 9 -59 -33z"/>
<path d="M4940 4355 c0 -43 4 -75 10 -75 6 0 10 32 10 75 0 43 -4 75 -10 75
-6 0 -10 -32 -10 -75z"/>
<path d="M6238 4418 l-58 -10 0 -80 0 -80 28 6 c15 3 45 8 67 12 78 12 75 8
75 90 l0 74 -27 -1 c-16 -1 -54 -6 -85 -11z"/>
<path d="M6430 4355 c0 -73 1 -75 30 -90 l30 -16 0 81 c0 77 -1 81 -26 90 -14
6 -27 10 -30 10 -2 0 -4 -34 -4 -75z"/>
<path d="M6973 4355 c0 -44 2 -61 4 -37 2 23 2 59 0 80 -2 20 -4 1 -4 -43z"/>
<path d="M2487 4413 c-4 -3 -7 -31 -7 -60 0 -46 3 -54 18 -51 13 2 18 15 20
61 2 43 0 57 -11 57 -7 0 -17 -3 -20 -7z"/>
<path d="M8160 4401 c-21 -6 -26 -14 -28 -47 l-3 -41 38 6 c36 6 38 8 41 49 3
44 0 46 -48 33z"/>
<path d="M9142 4368 c3 -42 4 -43 46 -49 l42 -5 0 37 c0 35 -3 39 -37 48 -54
15 -54 15 -51 -31z"/>
<path d="M3020 4342 l0 -59 38 -7 c72 -12 72 -11 72 49 l0 54 -37 6 c-21 4
-46 9 -55 12 -16 4 -18 -3 -18 -55z"/>
<path d="M2417 4383 c-7 -7 -10 -113 -3 -113 2 0 11 3 20 6 21 8 23 114 3 114
-8 0 -17 -3 -20 -7z"/>
<path d="M6008 4378 l-58 -10 0 -80 c0 -71 2 -79 18 -74 9 2 37 7 62 11 83 12
80 8 80 91 0 84 7 80 -102 62z"/>
<path d="M6522 4313 c3 -76 3 -77 36 -90 l32 -13 0 79 0 79 -31 11 c-18 6 -34
11 -36 11 -2 0 -3 -35 -1 -77z"/>
<path d="M8013 4363 c-19 -4 -23 -11 -23 -45 0 -37 2 -40 23 -34 12 3 28 6 35
6 7 0 12 15 12 40 0 41 -1 42 -47 33z"/>
<path d="M8573 4363 c-19 -4 -23 -11 -23 -45 0 -40 0 -40 31 -34 17 3 35 6 40
6 5 0 9 18 9 40 0 42 -3 44 -57 33z"/>
<path d="M8730 4331 c0 -32 4 -40 23 -45 42 -11 47 -7 47 33 0 32 -4 40 -22
45 -43 11 -48 7 -48 -33z"/>
<path d="M9290 4330 c0 -33 3 -40 19 -40 11 0 26 -3 35 -6 13 -5 16 1 16 34 0
33 -4 41 -22 46 -43 11 -48 7 -48 -34z"/>
<path d="M5773 4338 l-53 -10 0 -75 0 -75 33 5 c17 3 53 9 80 13 l47 6 0 74 0
74 -27 -1 c-16 -1 -52 -6 -80 -11z"/>
<path d="M6610 4277 c0 -69 2 -74 25 -85 14 -7 28 -12 30 -12 3 0 5 34 5 75 0
72 -1 76 -26 85 -14 6 -27 10 -30 10 -2 0 -4 -33 -4 -73z"/>
<path d="M8445 4331 c-27 -5 -30 -10 -33 -49 -3 -40 -1 -43 17 -38 12 3 30 9
41 12 16 4 20 14 20 45 0 21 -3 38 -7 38 -5 -1 -21 -4 -38 -8z"/>
<path d="M8860 4301 c0 -41 -2 -40 63 -57 14 -5 17 1 17 35 0 44 -1 46 -47 56
-33 7 -33 6 -33 -34z"/>
<path d="M5560 4306 l-65 -11 -3 -78 -3 -78 43 6 c24 4 59 10 78 14 l35 7 3
77 c2 58 0 77 -10 76 -7 -1 -42 -7 -78 -13z"/>
<path d="M6700 4240 c0 -78 0 -78 30 -89 l30 -10 0 77 c0 77 0 78 -30 89 l-30
11 0 -78z"/>
<path d="M9000 4266 c0 -41 2 -44 31 -50 55 -11 59 -9 59 34 0 37 -2 40 -37
49 -54 15 -53 16 -53 -33z"/>
<path d="M2568 4273 c-15 -4 -18 -16 -18 -64 0 -63 1 -65 31 -49 15 9 19 22
19 65 0 30 -3 54 -7 54 -5 -1 -16 -3 -25 -6z"/>
<path d="M2660 4227 c0 -31 3 -58 8 -60 4 -3 33 -8 65 -11 l57 -7 0 55 c0 61
1 60 -82 72 l-48 6 0 -55z"/>
<path d="M5333 4267 l-63 -10 0 -78 0 -78 28 5 c15 3 47 8 72 12 l45 7 3 78
c2 58 0 77 -10 76 -7 -1 -41 -6 -75 -12z"/>
<path d="M6790 4202 c0 -77 0 -78 30 -89 l30 -11 0 78 c0 78 0 78 -30 89 l-30
10 0 -77z"/>
<path d="M8153 4263 c-19 -4 -23 -11 -23 -45 0 -40 0 -40 31 -34 17 3 35 6 40
6 5 0 9 18 9 40 0 42 -3 44 -57 33z"/>
<path d="M9140 4236 c0 -40 2 -42 53 -51 l37 -7 0 40 c0 36 -3 40 -31 46 -54
11 -59 8 -59 -28z"/>
<path d="M2498 4239 c-14 -8 -18 -23 -18 -64 0 -30 3 -55 8 -55 25 1 33 20 30
73 -3 50 -5 55 -20 46z"/>
<path d="M5098 4227 l-58 -10 0 -74 0 -74 53 6 c104 12 97 6 97 90 0 84 7 80
-92 62z"/>
<path d="M6880 4159 c0 -61 3 -79 14 -79 8 0 21 -3 30 -6 14 -5 16 5 16 69 0
74 0 75 -30 86 l-30 10 0 -80z"/>
<path d="M8023 4229 c-30 -9 -33 -13 -33 -49 0 -22 2 -40 4 -40 1 0 17 5 35
11 28 10 31 15 31 50 0 21 -1 39 -2 38 -2 0 -18 -5 -35 -10z"/>
<path d="M8583 4229 c-30 -9 -33 -13 -33 -50 0 -41 0 -41 33 -34 46 10 47 12
47 56 0 21 -3 39 -7 38 -5 0 -23 -5 -40 -10z"/>
<path d="M8730 4200 c0 -42 2 -44 43 -54 26 -6 27 -5 27 34 0 22 -1 40 -3 40
-1 0 -17 4 -35 9 l-32 10 0 -39z"/>
<path d="M9290 4200 c0 -36 3 -40 33 -48 31 -8 32 -8 35 26 4 40 4 40 -37 52
-31 9 -31 9 -31 -30z"/>
<path d="M2428 4209 c-14 -8 -18 -23 -18 -64 0 -30 3 -55 8 -55 25 1 33 20 30
73 -3 50 -5 55 -20 46z"/>
<path d="M3020 4166 c0 -30 3 -57 8 -59 4 -3 28 -8 55 -11 l47 -7 0 55 c0 30
-3 57 -7 59 -5 3 -29 8 -55 11 l-48 7 0 -55z"/>
<path d="M4940 4125 c0 -43 4 -75 10 -75 6 0 10 32 10 75 0 43 -4 75 -10 75
-6 0 -10 -32 -10 -75z"/>
<path d="M6233 4188 l-53 -10 0 -78 c0 -59 3 -78 13 -75 6 2 45 9 85 15 l72
12 0 74 0 74 -32 -1 c-18 -1 -57 -6 -85 -11z"/>
<path d="M6430 4125 c0 -72 1 -76 26 -85 14 -6 27 -10 30 -10 2 0 4 34 4 75 0
63 -3 76 -19 85 -37 19 -41 12 -41 -65z"/>
<path d="M6973 4125 c0 -44 2 -61 4 -37 2 23 2 59 0 80 -2 20 -4 1 -4 -43z"/>
<path d="M8423 4193 c-8 -2 -13 -22 -13 -44 0 -41 8 -46 58 -33 18 5 22 13 22
45 0 36 -2 39 -27 38 -16 0 -34 -3 -40 -6z"/>
<path d="M8860 4161 c0 -32 4 -40 23 -45 49 -13 57 -8 57 33 0 41 -11 51 -56
51 -21 0 -24 -4 -24 -39z"/>
<path d="M6520 4090 c0 -77 1 -81 26 -90 42 -16 44 -13 44 63 l0 73 -35 17
-35 17 0 -80z"/>
<path d="M9000 4131 c0 -36 3 -41 28 -46 65 -14 62 -16 62 25 0 44 -1 46 -53
55 l-37 7 0 -41z"/>
<path d="M6035 4155 c-5 -2 -27 -6 -47 -10 l-38 -6 0 -78 0 -78 48 8 c26 5 62
11 80 14 l32 6 0 74 0 75 -32 -1 c-18 0 -37 -2 -43 -4z"/>
<path d="M5830 4119 c-25 -4 -60 -11 -77 -14 l-33 -6 0 -75 0 -75 33 5 c17 3
53 8 80 11 l47 6 0 80 c0 43 -1 79 -2 78 -2 -1 -23 -5 -48 -10z"/>
<path d="M9140 4093 c0 -39 1 -40 45 -50 l45 -10 0 38 c0 43 -2 45 -53 54
l-37 7 0 -39z"/>
<path d="M6612 4043 c3 -74 4 -77 31 -84 l27 -7 0 74 c0 62 -3 75 -19 84 -38
20 -42 13 -39 -67z"/>
<path d="M2573 4098 c-20 -10 -23 -19 -23 -69 l0 -59 25 12 c23 10 25 17 25
70 0 32 -1 58 -2 57 -2 0 -13 -5 -25 -11z"/>
<path d="M2660 4049 l0 -57 38 -6 c20 -4 49 -9 65 -12 l27 -6 0 60 0 59 -65 9
-65 10 0 -57z"/>
<path d="M8020 4091 c-20 -5 -26 -14 -28 -44 -3 -31 0 -37 17 -37 40 0 51 11
51 51 0 21 -3 39 -7 38 -5 -1 -19 -4 -33 -8z"/>
<path d="M8580 4091 c-21 -6 -26 -14 -28 -49 -2 -31 0 -41 10 -38 7 2 25 7 41
10 24 6 27 11 27 46 0 42 -4 44 -50 31z"/>
<path d="M8730 4061 c0 -37 3 -41 33 -49 31 -8 32 -8 35 26 4 40 -2 48 -40 57
-27 7 -28 6 -28 -34z"/>
<path d="M9290 4062 c0 -33 4 -41 23 -46 42 -11 47 -7 47 34 0 25 -5 40 -12
40 -7 0 -23 3 -35 6 -21 6 -23 3 -23 -34z"/>
<path d="M5625 4083 c-11 -1 -46 -5 -77 -8 l-58 -6 0 -81 c0 -78 1 -80 23 -74
12 3 46 9 75 12 30 4 56 12 58 19 3 7 4 41 2 76 -3 57 -5 64 -23 62z"/>
<path d="M6700 4015 c0 -73 1 -75 30 -90 l30 -16 0 80 c0 79 0 79 -30 90 l-30
10 0 -74z"/>
<path d="M2498 4069 c-14 -8 -18 -23 -18 -64 0 -30 3 -55 8 -55 25 1 33 20 30
73 -3 50 -5 55 -20 46z"/>
<path d="M8440 4061 c-21 -6 -25 -14 -28 -50 -3 -41 -2 -43 20 -37 13 3 31 6
41 6 14 0 17 9 17 45 0 47 -3 49 -50 36z"/>
<path d="M8860 4031 c0 -44 1 -46 48 -56 32 -7 32 -7 32 34 0 44 -1 46 -47 56
-33 7 -33 7 -33 -34z"/>
<path d="M2428 4039 c-14 -8 -18 -23 -18 -64 0 -30 3 -55 8 -55 25 1 33 20 30
73 -3 50 -5 55 -20 46z"/>
<path d="M3020 3990 c0 -50 3 -60 18 -60 9 0 34 -3 55 -6 l37 -7 0 56 c0 60 1
59 -72 72 l-38 6 0 -61z"/>
<path d="M5323 4038 l-53 -10 0 -77 0 -78 53 9 c106 18 97 9 97 93 0 85 5 82
-97 63z"/>
<path d="M6790 3975 c0 -73 1 -75 30 -90 l30 -16 0 79 c0 75 -1 79 -25 90 -14
7 -28 12 -30 12 -3 0 -5 -34 -5 -75z"/>
<path d="M9000 3999 c0 -43 2 -45 53 -54 l37 -7 0 39 c0 39 -1 40 -45 50 l-45
10 0 -38z"/>
<path d="M5093 3998 l-53 -10 0 -75 0 -76 53 7 c102 14 97 9 97 92 0 84 5 81
-97 62z"/>
<path d="M6880 3935 c0 -63 3 -76 19 -85 37 -19 41 -12 41 63 0 69 -2 74 -25
85 -14 7 -28 12 -30 12 -3 0 -5 -34 -5 -75z"/>
<path d="M8158 3988 c-24 -8 -28 -15 -28 -48 l0 -38 40 10 c38 10 40 12 40 49
0 42 -6 45 -52 27z"/>
<path d="M9140 3961 c0 -34 3 -40 28 -45 15 -4 35 -9 45 -12 14 -4 17 1 17 35
0 38 -2 41 -37 50 -53 15 -53 15 -53 -28z"/>
<path d="M4940 3894 c0 -47 4 -73 10 -69 6 3 10 37 10 76 0 39 -4 69 -10 69
-6 0 -10 -32 -10 -76z"/>
<path d="M6973 3895 c0 -44 2 -61 4 -37 2 23 2 59 0 80 -2 20 -4 1 -4 -43z"/>
<path d="M8003 3953 c-8 -2 -13 -22 -13 -45 0 -37 2 -40 23 -34 12 3 28 6 35
6 7 0 12 15 12 40 0 35 -3 40 -22 39 -13 0 -29 -3 -35 -6z"/>
<path d="M8563 3953 c-8 -2 -13 -22 -13 -45 0 -40 0 -40 31 -34 17 3 35 6 40
6 5 0 9 18 9 40 0 37 -2 40 -27 39 -16 0 -34 -3 -40 -6z"/>
<path d="M8730 3921 c0 -38 13 -50 58 -51 19 0 16 76 -4 84 -40 16 -54 7 -54
-33z"/>
<path d="M9290 3921 c0 -26 5 -41 13 -41 6 0 22 -3 35 -6 22 -6 23 -4 20 37
-3 42 -5 44 -35 47 -32 3 -33 2 -33 -37z"/>
<path d="M2563 3923 c-9 -3 -13 -26 -13 -64 0 -56 1 -58 23 -50 19 7 22 17 25
65 3 56 -2 63 -35 49z"/>
<path d="M2660 3877 c0 -62 -1 -60 83 -72 l47 -6 0 55 c0 30 -3 57 -7 59 -5 3
-34 8 -65 12 l-58 7 0 -55z"/>
<path d="M8433 3923 c-19 -4 -23 -11 -23 -44 0 -35 3 -39 24 -39 45 0 56 10
56 51 0 41 -3 42 -57 32z"/>
<path d="M6610 3845 c0 -72 1 -76 26 -85 14 -6 27 -10 30 -10 2 0 4 34 4 75 0
63 -3 76 -19 85 -37 19 -41 12 -41 -65z"/>
<path d="M6035 3905 c-5 -2 -27 -6 -47 -10 l-38 -6 0 -74 c0 -85 -5 -82 97
-64 l63 11 0 74 0 74 -32 -1 c-18 0 -37 -2 -43 -4z"/>
<path d="M2498 3892 c-15 -3 -18 -14 -18 -63 0 -32 3 -59 8 -59 24 1 33 20 30
71 -3 46 -6 54 -20 51z"/>
<path d="M9000 3861 c0 -38 2 -41 38 -50 52 -15 52 -15 52 28 0 34 -3 40 -27
45 -16 4 -36 9 -45 12 -15 4 -18 -1 -18 -35z"/>
<path d="M6700 3811 c0 -79 0 -79 30 -90 l30 -10 0 74 c0 73 -1 75 -30 90
l-30 16 0 -80z"/>
<path d="M5845 3873 c-11 -2 -44 -9 -72 -14 l-53 -10 0 -76 c0 -73 1 -75 23
-69 13 3 49 8 80 12 l57 7 0 78 c0 44 -3 78 -7 78 -5 -1 -17 -3 -28 -6z"/>
<path d="M2428 3863 c-15 -4 -18 -16 -18 -63 0 -53 2 -58 20 -53 17 5 20 14
20 64 0 33 -1 58 -2 58 -2 -1 -11 -3 -20 -6z"/>
<path d="M8153 3853 c-19 -4 -23 -11 -23 -45 0 -40 0 -40 31 -34 17 3 35 6 40
6 5 0 9 18 9 40 0 42 -3 44 -57 33z"/>
<path d="M5545 3841 l-50 -6 -3 -78 -3 -78 43 6 c24 4 59 10 78 14 l35 7 3 72
3 72 -28 -2 c-15 0 -50 -4 -78 -7z"/>
<path d="M6790 3775 c0 -73 1 -75 30 -90 l30 -16 0 80 c0 79 0 79 -30 90 l-30
10 0 -74z"/>
<path d="M8020 3821 c-21 -6 -26 -14 -28 -49 -3 -42 -3 -43 25 -36 42 10 43
12 43 55 0 21 -3 39 -7 38 -5 -1 -19 -4 -33 -8z"/>
<path d="M8580 3821 c-21 -6 -26 -14 -28 -50 l-3 -43 33 7 c47 10 48 12 48 56
0 41 -4 43 -50 30z"/>
<path d="M8730 3791 c0 -35 4 -43 26 -51 40 -16 44 -13 44 35 0 29 -4 45 -12
45 -7 0 -23 3 -35 6 -21 6 -23 3 -23 -35z"/>
<path d="M9290 3791 c0 -37 3 -41 33 -49 32 -8 32 -8 35 31 4 46 6 43 -35 52
-33 7 -33 7 -33 -34z"/>
<path d="M5333 3807 l-63 -10 0 -79 c0 -71 2 -79 18 -75 9 3 35 8 57 12 78 12
75 9 75 91 0 53 -3 74 -12 73 -7 -1 -41 -6 -75 -12z"/>
<path d="M6880 3735 c0 -63 3 -76 19 -85 37 -19 41 -12 41 63 0 69 -2 74 -25
85 -14 7 -28 12 -30 12 -3 0 -5 -34 -5 -75z"/>
<path d="M8448 3787 c-36 -9 -38 -11 -38 -49 0 -39 0 -40 33 -33 43 9 49 17
45 57 -3 34 -3 34 -40 25z"/>
<path d="M8860 3762 c0 -36 3 -41 31 -51 47 -16 49 -15 49 28 0 33 -4 41 -22
46 -61 18 -58 19 -58 -23z"/>
<path d="M5098 3768 l-58 -10 0 -78 0 -77 53 9 c106 18 97 9 97 93 0 84 7 80
-92 63z"/>
<path d="M6430 3695 c0 -63 3 -76 19 -85 37 -19 41 -12 41 63 0 69 -2 74 -25
85 -14 7 -28 12 -30 12 -3 0 -5 -34 -5 -75z"/>
<path d="M6973 3695 c0 -44 2 -61 4 -37 2 23 2 59 0 80 -2 20 -4 1 -4 -43z"/>
<path d="M2573 3750 c-20 -8 -23 -16 -23 -69 l0 -61 25 12 c23 10 25 17 25 70
0 32 -1 58 -2 57 -2 0 -13 -4 -25 -9z"/>
<path d="M2660 3702 l0 -60 38 -6 c20 -4 49 -9 65 -12 l27 -6 0 60 0 60 -47 6
c-27 4 -56 9 -65 12 -16 5 -18 -2 -18 -54z"/>
<path d="M6290 3749 c-25 -4 -60 -11 -77 -14 l-33 -6 0 -76 0 -75 33 6 c17 4
56 10 85 13 l52 6 0 78 c0 44 -3 79 -7 78 -5 -1 -28 -5 -53 -10z"/>
<path d="M9000 3722 c0 -40 1 -41 43 -49 l42 -9 3 34 c4 42 -2 48 -50 57 l-38
7 0 -40z"/>
<path d="M4940 3665 c0 -43 4 -75 10 -75 6 0 10 32 10 75 0 43 -4 75 -10 75
-6 0 -10 -32 -10 -75z"/>
<path d="M6520 3657 c0 -69 2 -74 25 -85 14 -7 30 -12 35 -12 12 0 14 147 3
153 -5 2 -20 7 -35 11 l-28 6 0 -73z"/>
<path d="M8170 3720 c-33 -5 -35 -7 -38 -48 l-3 -44 33 7 c44 9 50 16 46 56
-3 33 -4 34 -38 29z"/>
<path d="M9140 3689 c0 -43 1 -44 53 -53 l38 -7 -3 43 c-3 42 -4 43 -45 49
l-43 5 0 -37z"/>
<path d="M2487 3713 c-4 -3 -7 -31 -7 -60 0 -46 3 -54 18 -51 13 2 18 15 20
61 2 43 0 57 -11 57 -7 0 -17 -3 -20 -7z"/>
<path d="M2428 3689 c-14 -8 -18 -23 -18 -64 0 -30 3 -55 8 -55 25 1 33 20 30
73 -3 50 -5 55 -20 46z"/>
<path d="M3020 3646 c0 -30 3 -57 8 -59 4 -3 28 -8 55 -11 l47 -7 0 55 c0 30
-3 57 -7 59 -5 3 -29 8 -55 11 l-48 7 0 -55z"/>
<path d="M6040 3679 c-97 -18 -90 -11 -90 -94 0 -46 4 -75 11 -75 5 0 41 5 80
11 l69 12 0 78 c0 57 -3 79 -12 78 -7 -1 -33 -5 -58 -10z"/>
<path d="M8008 3683 c-13 -3 -18 -15 -18 -44 0 -32 4 -39 19 -39 40 0 51 11
51 51 0 40 -6 44 -52 32z"/>
<path d="M8568 3683 c-13 -3 -18 -15 -18 -44 0 -35 3 -39 24 -39 45 0 56 10
56 51 0 41 -10 46 -62 32z"/>
<path d="M8730 3651 c0 -40 11 -51 51 -51 15 0 19 7 19 39 0 32 -4 40 -22 45
-43 11 -48 7 -48 -33z"/>
<path d="M9290 3651 c0 -32 4 -40 23 -45 42 -11 47 -7 47 33 0 32 -4 40 -22
45 -43 11 -48 7 -48 -33z"/>
<path d="M6700 3582 c0 -75 1 -79 25 -90 14 -7 28 -12 30 -12 3 0 5 34 5 75 0
73 -1 75 -30 90 l-30 16 0 -79z"/>
<path d="M8440 3651 c-21 -6 -26 -14 -28 -50 -3 -39 -1 -42 17 -37 12 3 30 9
41 12 16 4 20 14 20 45 0 41 -4 43 -50 30z"/>
<path d="M8860 3621 c0 -36 3 -41 28 -47 15 -3 33 -7 40 -10 8 -2 12 9 12 36
0 43 -1 45 -47 55 -33 7 -33 7 -33 -34z"/>
<path d="M5790 3636 l-65 -11 -3 -76 -3 -75 58 7 c32 4 68 8 81 8 21 1 22 5
22 81 0 58 -3 80 -12 79 -7 -1 -42 -7 -78 -13z"/>
<path d="M5615 3623 c-11 -2 -44 -9 -72 -14 l-53 -10 0 -75 c0 -41 2 -74 5
-74 4 0 85 16 133 26 20 4 22 10 22 79 0 41 -3 74 -7 74 -5 -1 -17 -3 -28 -6z"/>
<path d="M9000 3581 c0 -34 3 -40 28 -45 15 -4 35 -9 45 -12 14 -4 17 1 17 35
0 38 -2 41 -37 50 -53 15 -53 15 -53 -28z"/>
<path d="M9140 3551 c0 -45 1 -47 53 -56 l37 -7 0 40 c0 39 -2 42 -37 51 -53
15 -53 15 -53 -28z"/>
<path d="M6880 3505 c0 -72 1 -76 26 -85 14 -6 27 -10 30 -10 2 0 4 34 4 75 0
72 -1 76 -26 85 -14 6 -27 10 -30 10 -2 0 -4 -34 -4 -75z"/>
<path d="M8023 3549 c-30 -9 -33 -13 -33 -49 0 -22 2 -40 4 -40 1 0 17 5 35
11 28 10 31 15 31 50 0 21 -1 39 -2 38 -2 0 -18 -5 -35 -10z"/>
<path d="M8583 3549 c-30 -9 -33 -13 -33 -50 0 -41 0 -41 33 -34 46 10 47 12
47 56 0 21 -3 39 -7 38 -5 0 -23 -5 -40 -10z"/>
<path d="M9290 3519 c0 -22 1 -39 3 -39 1 0 17 -4 35 -9 l33 -10 -3 42 c-3 38
-6 42 -35 48 -33 6 -33 6 -33 -32z"/>
<path d="M5093 3538 l-53 -10 0 -75 0 -76 53 7 c102 14 97 9 97 92 0 84 5 81
-97 62z"/>
<path d="M2423 3533 c-9 -3 -13 -26 -13 -64 0 -57 1 -59 20 -49 16 9 20 21 20
65 0 54 -3 58 -27 48z"/>
<path d="M6430 3465 c0 -73 1 -75 30 -90 l30 -16 0 80 c0 69 -3 82 -19 91 -37
19 -41 12 -41 -65z"/>
<path d="M6973 3465 c0 -44 2 -61 4 -37 2 23 2 59 0 80 -2 20 -4 1 -4 -43z"/>
<path d="M6270 3519 c-97 -18 -90 -11 -90 -95 0 -67 2 -75 18 -70 9 2 47 7 85
11 l67 7 0 79 c0 88 4 84 -80 68z"/>
<path d="M8433 3513 c-19 -4 -23 -11 -23 -44 0 -41 8 -46 58 -33 18 5 22 13
22 45 0 41 -3 42 -57 32z"/>
<path d="M8860 3481 c0 -35 3 -39 31 -45 48 -9 49 -9 49 33 0 35 -3 39 -31 45
-48 9 -49 9 -49 -33z"/>
<path d="M3020 3452 l0 -59 38 -7 c72 -12 72 -11 72 49 l0 54 -37 6 c-21 4
-46 9 -55 12 -16 4 -18 -3 -18 -55z"/>
<path d="M4940 3435 c0 -43 4 -75 10 -75 6 0 10 32 10 75 0 43 -4 75 -10 75
-6 0 -10 -32 -10 -75z"/>
<path d="M9000 3450 c0 -37 2 -40 38 -49 52 -15 52 -15 52 29 0 42 -2 44 -57
54 -33 5 -33 5 -33 -34z"/>
<path d="M6610 3390 c0 -78 0 -78 30 -89 l30 -10 0 79 c0 78 0 78 -30 89 l-30
10 0 -79z"/>
<path d="M6013 3447 l-63 -10 0 -78 c0 -57 4 -79 13 -78 6 0 41 6 77 13 l65
12 3 77 c3 87 12 81 -95 64z"/>
<path d="M8163 3448 c-30 -10 -33 -15 -33 -51 0 -39 0 -39 31 -33 17 3 35 6
40 6 5 0 9 20 9 45 0 25 -3 45 -7 44 -5 -1 -23 -6 -40 -11z"/>
<path d="M9140 3417 c0 -42 2 -45 31 -51 55 -11 59 -9 59 33 0 34 -3 40 -27
45 -16 4 -36 9 -45 12 -15 5 -18 -1 -18 -39z"/>
<path d="M2568 3419 c-25 -14 -27 -124 -2 -115 9 3 20 6 25 6 5 0 9 27 9 60 0
62 -3 66 -32 49z"/>
<path d="M6700 3356 c0 -74 5 -86 43 -99 15 -6 17 2 17 72 0 74 -1 78 -25 89
-14 7 -28 12 -30 12 -3 0 -5 -33 -5 -74z"/>
<path d="M2660 3362 l0 -59 43 -7 c23 -4 52 -9 65 -13 21 -5 22 -2 22 55 l0
60 -47 6 c-27 4 -56 9 -65 12 -16 5 -18 -2 -18 -54z"/>
<path d="M5778 3408 l-58 -10 0 -80 0 -79 33 6 c17 3 52 9 77 13 l45 7 3 78
c3 88 10 84 -100 65z"/>
<path d="M8020 3411 c-20 -5 -26 -14 -28 -44 -3 -39 2 -42 46 -31 18 5 22 13
22 45 0 22 -3 39 -7 38 -5 -1 -19 -4 -33 -8z"/>
<path d="M8580 3411 c-21 -6 -26 -14 -28 -48 l-3 -41 40 10 c39 10 41 12 41
49 0 41 -4 43 -50 30z"/>
<path d="M8730 3381 c0 -37 3 -41 33 -49 31 -8 32 -8 35 26 4 40 -2 48 -40 57
-27 7 -28 6 -28 -34z"/>
<path d="M9290 3382 c0 -33 4 -41 23 -46 42 -11 47 -7 47 34 0 25 -5 40 -12
40 -7 0 -23 3 -35 6 -21 6 -23 3 -23 -34z"/>
<path d="M5560 3386 l-65 -11 -3 -74 -3 -73 73 7 c40 4 76 9 81 12 4 2 7 38 7
79 0 53 -4 74 -12 73 -7 -1 -42 -7 -78 -13z"/>
<path d="M2487 3383 c-4 -3 -7 -31 -7 -60 0 -46 3 -54 18 -51 13 2 18 15 20
61 2 43 0 57 -11 57 -7 0 -17 -3 -20 -7z"/>
<path d="M6790 3317 c0 -69 2 -74 25 -85 14 -7 28 -12 30 -12 3 0 5 33 5 73 0
69 -2 74 -25 85 -14 7 -28 12 -30 12 -3 0 -5 -33 -5 -73z"/>
<path d="M9000 3315 c0 -38 3 -44 28 -49 15 -4 35 -9 45 -12 14 -5 17 1 17 39
0 44 0 44 -45 54 l-45 10 0 -42z"/>
<path d="M6880 3277 c0 -69 2 -74 25 -85 14 -7 28 -12 30 -12 3 0 5 34 5 75 0
63 -3 76 -19 85 -37 19 -41 12 -41 -63z"/>
<path d="M3020 3279 l0 -57 53 -9 52 -8 3 53 c2 30 2 56 0 57 -2 2 -27 8 -55
13 l-53 9 0 -58z"/>
<path d="M6430 3242 c0 -75 1 -79 25 -90 14 -7 28 -12 30 -12 3 0 5 34 5 75 0
73 -1 75 -30 90 l-30 16 0 -79z"/>
<path d="M8158 3308 c-24 -8 -28 -15 -28 -48 l0 -38 40 10 c38 10 40 12 40 49
0 42 -6 45 -52 27z"/>
<path d="M9140 3280 c0 -22 3 -40 8 -40 4 0 24 -4 45 -9 l37 -9 0 39 c0 36 -2
39 -37 48 -53 15 -53 15 -53 -29z"/>
<path d="M6973 3235 c0 -44 2 -61 4 -37 2 23 2 59 0 80 -2 20 -4 1 -4 -43z"/>
<path d="M6243 3287 l-63 -10 0 -78 c0 -44 4 -79 10 -79 8 0 73 12 138 26 20
4 22 10 22 79 0 85 8 81 -107 62z"/>
<path d="M4947 3283 c-11 -11 -8 -153 3 -153 6 0 10 33 10 80 0 80 -1 86 -13
73z"/>
<path d="M6520 3201 c0 -66 3 -79 18 -84 9 -2 25 -8 35 -12 16 -7 18 -1 15 70
-3 76 -3 77 -35 90 l-33 14 0 -78z"/>
<path d="M8013 3273 c-19 -4 -23 -11 -23 -45 0 -37 2 -40 23 -34 12 3 28 6 35
6 7 0 12 15 12 40 0 41 -1 42 -47 33z"/>
<path d="M8573 3273 c-19 -4 -23 -11 -23 -45 0 -40 0 -40 31 -34 17 3 35 6 40
6 5 0 9 18 9 40 0 42 -3 44 -57 33z"/>
<path d="M8730 3241 c0 -32 4 -40 23 -45 42 -11 47 -7 47 33 0 32 -4 40 -22
45 -43 11 -48 7 -48 -33z"/>
<path d="M9290 3240 c0 -33 3 -40 19 -40 11 0 26 -3 35 -6 13 -5 16 1 16 34 0
33 -4 41 -22 46 -43 11 -48 7 -48 -34z"/>
<path d="M2568 3243 c-15 -4 -18 -16 -18 -64 0 -63 1 -65 31 -49 15 9 19 22
19 65 0 30 -3 54 -7 54 -5 -1 -16 -3 -25 -6z"/>
<path d="M8443 3243 c-32 -4 -33 -6 -33 -49 0 -41 2 -45 20 -40 11 3 29 9 40
12 16 4 20 14 20 45 0 21 -3 38 -7 37 -5 0 -23 -3 -40 -5z"/>
<path d="M8860 3212 c0 -42 -2 -41 63 -58 14 -5 17 2 17 40 0 37 -3 46 -17 46
-10 0 -28 3 -40 6 -21 6 -23 3 -23 -34z"/>
<path d="M2660 3185 c0 -62 -1 -61 78 -69 l52 -5 0 58 0 58 -46 7 c-86 11 -84
12 -84 -49z"/>
<path d="M9000 3177 c0 -42 2 -45 31 -51 55 -11 59 -9 59 34 0 35 -3 40 -27
46 -16 3 -36 8 -45 11 -15 4 -18 -3 -18 -40z"/>
<path d="M6700 3125 c0 -73 1 -75 30 -90 l30 -16 0 79 c0 75 -1 79 -25 90 -14
7 -28 12 -30 12 -3 0 -5 -34 -5 -75z"/>
<path d="M2423 3183 c-8 -3 -13 -25 -13 -60 0 -46 3 -54 18 -51 13 2 18 15 20
61 3 56 0 61 -25 50z"/>
<path d="M5773 3178 l-53 -10 0 -79 c0 -72 2 -80 18 -75 15 4 130 26 139 26 2
0 3 34 3 75 l0 75 -27 -1 c-16 -1 -52 -6 -80 -11z"/>
<path d="M8153 3173 c-19 -4 -23 -11 -23 -45 0 -40 0 -40 31 -34 17 3 35 6 40
6 5 0 9 18 9 40 0 42 -3 44 -57 33z"/>
<path d="M5548 3158 l-58 -10 0 -76 0 -75 65 7 c98 10 95 7 95 92 0 84 7 80
-102 62z"/>
<path d="M8023 3139 c-30 -9 -33 -13 -33 -49 0 -22 2 -40 4 -40 1 0 17 5 35
11 28 10 31 15 31 50 0 21 -1 39 -2 38 -2 0 -18 -5 -35 -10z"/>
<path d="M8615 3144 c-5 -1 -22 -5 -37 -8 -25 -6 -28 -11 -28 -47 0 -41 0 -41
33 -34 17 4 36 11 40 15 12 10 4 77 -8 74z"/>
<path d="M8730 3109 c0 -33 4 -41 26 -49 40 -16 44 -13 44 30 0 22 -1 40 -3
40 -1 0 -17 4 -35 9 l-32 10 0 -40z"/>
<path d="M9290 3110 c0 -36 3 -40 33 -48 31 -8 32 -8 35 26 4 40 4 40 -37 52
-31 9 -31 9 -31 -30z"/>
<path d="M5325 3121 l-50 -6 -3 -78 -3 -79 28 6 c15 3 49 8 76 12 l47 6 0 74
c0 83 9 77 -95 65z"/>
<path d="M6880 3047 c0 -72 0 -73 30 -84 l30 -11 0 78 c0 72 -2 78 -22 84 -13
3 -26 6 -30 6 -5 0 -8 -33 -8 -73z"/>
<path d="M5105 3086 l-60 -12 -3 -78 c-3 -77 -3 -78 20 -73 13 3 47 9 76 13
l52 7 0 78 c0 57 -3 79 -12 78 -7 -1 -40 -7 -73 -13z"/>
<path d="M2568 3069 c-14 -8 -18 -23 -18 -64 0 -59 1 -60 31 -45 15 9 19 22
19 65 0 57 -3 61 -32 44z"/>
<path d="M9000 3043 c0 -39 1 -40 45 -50 l45 -10 0 38 c0 43 -2 45 -53 54
l-37 7 0 -39z"/>
<path d="M2660 3012 l0 -59 50 -7 c28 -4 57 -9 65 -12 12 -5 15 5 15 54 l0 60
-37 6 c-21 4 -50 9 -65 12 l-28 6 0 -60z"/>
<path d="M2498 3039 c-14 -8 -18 -23 -18 -64 0 -30 3 -55 8 -55 25 1 33 20 30
73 -3 50 -5 55 -20 46z"/>
<path d="M6520 2970 l0 -79 33 -9 32 -8 3 64 c4 80 1 87 -37 100 l-31 11 0
-79z"/>
<path d="M8018 3003 c-26 -4 -28 -8 -28 -48 l0 -44 32 10 c18 5 34 9 35 9 2 0
3 18 3 40 0 22 -3 39 -7 39 -5 -1 -20 -4 -35 -6z"/>
<path d="M8578 3003 c-26 -4 -28 -8 -28 -49 0 -41 2 -45 20 -40 11 3 29 9 40
12 16 4 20 14 20 45 0 25 -4 38 -12 38 -7 -1 -25 -4 -40 -6z"/>
<path d="M9290 2972 c0 -33 4 -41 23 -46 42 -11 47 -7 47 34 0 33 -3 40 -19
40 -11 0 -26 3 -35 6 -13 5 -16 -1 -16 -34z"/>
<path d="M6035 2995 c-5 -2 -27 -6 -47 -10 l-38 -6 0 -74 c0 -85 -5 -82 97
-64 l63 11 0 74 0 74 -32 -1 c-18 0 -37 -2 -43 -4z"/>
<path d="M6700 2901 c0 -74 1 -78 25 -89 14 -7 28 -12 30 -12 3 0 5 33 5 74 0
73 -1 75 -30 90 l-30 14 0 -77z"/>
<path d="M8860 2941 c0 -44 1 -46 48 -56 32 -7 32 -7 32 34 0 44 -1 46 -47 56
-33 7 -33 7 -33 -34z"/>
<path d="M5845 2963 c-11 -2 -44 -9 -72 -14 l-53 -10 0 -75 c0 -84 -5 -81 97
-63 l63 11 0 79 c0 43 -3 78 -7 78 -5 -1 -17 -3 -28 -6z"/>
<path d="M9000 2909 c0 -43 2 -45 53 -54 l37 -7 0 39 c0 39 -1 40 -45 50 l-45
10 0 -38z"/>
<path d="M5380 2899 c-19 -4 -52 -10 -72 -13 l-38 -7 0 -76 c0 -59 3 -74 13
-70 8 3 40 8 71 12 32 4 60 13 62 20 3 6 4 41 2 76 l-3 65 -35 -7z"/>
<path d="M8158 2898 c-24 -8 -28 -15 -28 -50 0 -33 3 -39 16 -34 9 3 27 9 40
12 20 5 24 12 24 45 0 42 -6 45 -52 27z"/>
<path d="M9140 2871 c0 -34 3 -40 28 -45 15 -4 35 -9 45 -12 14 -4 17 1 17 35
0 38 -2 41 -37 50 -53 15 -53 15 -53 -28z"/>
<path d="M6880 2820 c0 -58 3 -71 19 -80 37 -19 41 -12 41 64 0 68 -2 74 -22
80 -13 3 -26 6 -30 6 -5 0 -8 -31 -8 -70z"/>
<path d="M8023 2868 c-30 -8 -33 -12 -33 -49 0 -41 0 -41 33 -34 41 9 39 6 35
52 -3 39 -3 39 -35 31z"/>
<path d="M8583 2869 c-30 -9 -33 -13 -33 -51 0 -40 0 -40 31 -34 17 3 35 6 40
6 5 0 9 20 9 45 0 25 -3 45 -7 44 -5 0 -23 -5 -40 -10z"/>
<path d="M2487 2863 c-4 -3 -7 -31 -7 -60 0 -46 3 -54 18 -51 13 2 18 15 20
61 2 43 0 57 -11 57 -7 0 -17 -3 -20 -7z"/>
<path d="M6973 2785 c0 -44 2 -61 4 -37 2 23 2 59 0 80 -2 20 -4 1 -4 -43z"/>
<path d="M2850 2780 c0 -50 3 -60 18 -60 9 0 34 -3 55 -6 l37 -7 0 56 c0 60 1
59 -72 72 l-38 6 0 -61z"/>
<path d="M8433 2833 c-19 -4 -23 -11 -23 -45 0 -40 0 -40 31 -34 17 3 35 6 40
6 5 0 9 18 9 40 0 42 -3 44 -57 33z"/>
<path d="M8860 2801 c0 -35 3 -39 31 -45 48 -9 49 -9 49 33 0 35 -3 39 -31 45
-48 9 -49 9 -49 -33z"/>
<path d="M3020 2756 c0 -30 3 -57 8 -59 4 -3 28 -8 55 -11 l47 -7 0 55 c0 30
-3 57 -7 59 -5 3 -29 8 -55 11 l-48 7 0 -55z"/>
<path d="M9000 2771 c0 -38 2 -41 38 -50 52 -15 52 -15 52 28 0 34 -3 40 -27
45 -16 4 -36 9 -45 12 -15 4 -18 -1 -18 -35z"/>
<path d="M5615 2713 c-11 -2 -44 -9 -72 -14 l-53 -10 0 -75 c0 -45 4 -74 11
-74 5 0 41 5 80 11 l69 12 0 78 c0 44 -3 78 -7 78 -5 -1 -17 -3 -28 -6z"/>
<path d="M7877 2693 c-4 -3 -7 -22 -7 -40 0 -30 3 -34 23 -31 18 2 23 10 25
41 3 31 0 37 -16 37 -10 0 -22 -3 -25 -7z"/>
<path d="M9000 2605 c0 -48 3 -65 14 -65 7 0 28 -3 45 -6 l31 -6 0 60 c0 34
-3 63 -7 65 -5 2 -25 7 -45 11 l-38 7 0 -66z"/>
<path d="M5093 2628 l-53 -10 0 -75 0 -76 53 7 c102 14 97 9 97 92 0 84 5 81
-97 62z"/>
<path d="M6973 2555 c0 -44 2 -61 4 -37 2 23 2 59 0 80 -2 20 -4 1 -4 -43z"/>
<path d="M4940 2525 c0 -43 4 -75 10 -75 6 0 10 32 10 75 0 43 -4 75 -10 75
-6 0 -10 -32 -10 -75z"/>
<path d="M7893 2563 c-21 -4 -23 -10 -23 -67 0 -62 0 -63 25 -58 24 4 25 8 25
68 0 35 -1 63 -2 63 -2 -1 -13 -4 -25 -6z"/>
<path d="M5125 2403 c-88 -7 -85 -5 -85 -89 l0 -76 33 6 c17 3 51 8 75 12 l42
7 0 73 c0 53 -3 74 -12 72 -7 -1 -31 -3 -53 -5z"/>
</g>
</svg>
